<svg version="1.1" xmlns="http://www.w3.org/2000/svg" xmlns:xlink="http://www.w3.org/1999/xlink" width="538.000000pt" height="521.000000pt" viewBox="0,0,256,247.90625"><g fill="#ffa500" fill-rule="nonzero" stroke="none" stroke-width="1" stroke-linecap="butt" stroke-linejoin="miter" stroke-miterlimit="10" stroke-dasharray="" stroke-dashoffset="0" font-family="none" font-weight="none" font-size="none" text-anchor="none" style="mix-blend-mode: normal"><path d="M0,247.90625v-247.90625h256v247.90625z" id="bgRectangle"></path></g><g fill="#000000" fill-rule="nonzero" stroke="none" stroke-width="1" stroke-linecap="butt" stroke-linejoin="miter" stroke-miterlimit="10" stroke-dasharray="" stroke-dashoffset="0" font-family="none" font-weight="none" font-size="none" text-anchor="none" style="mix-blend-mode: normal"><g transform="translate(0,-0.00227) scale(0.47584,0.47584)"><g transform="translate(0,521) scale(0.1,-0.1)"><path d="M0,2605v-2605l628,1c429,1 588,4 502,10c-370,24 -659,59 -760,93c-101,33 -83,62 57,91c108,23 329,48 357,41c14,-3 29,-6 32,-5c10,2 64,-54 64,-66c0,-14 83,-52 131,-60c20,-3 47,-14 59,-25c20,-18 35,-19 159,-16c132,4 171,10 171,26c0,13 58,32 78,26c26,-9 83,26 117,70c18,24 34,34 53,34c33,0 102,65 102,96c0,26 19,44 47,44c26,0 73,71 73,111c0,22 29,76 30,56c0,-4 8,-3 18,2c9,5 25,31 35,58l18,49l142,-33c78,-18 188,-40 245,-50c96,-15 106,-15 155,0c72,23 200,108 235,156c16,22 89,143 162,270c117,205 150,253 150,222c0,-4 -9,-20 -20,-34c-24,-30 -38,-121 -21,-131c14,-9 15,-53 1,-61c-16,-10 -13,-125 4,-131c10,-4 13,-26 12,-85c-1,-74 1,-81 23,-98c20,-15 24,-27 23,-60c-2,-47 30,-121 53,-121c17,0 35,-30 35,-59c0,-29 41,-90 65,-97c30,-9 55,-35 55,-55c0,-23 69,-79 98,-79c13,0 35,-13 50,-29c36,-39 83,-61 125,-59c22,1 45,-7 62,-20c33,-26 109,-39 130,-22c11,9 22,9 52,-1c48,-17 124,-12 140,8c9,12 22,14 50,10c50,-8 112,9 140,39c15,16 32,24 50,22c34,-2 113,37 113,57c0,19 39,45 57,38c7,-3 23,3 34,13c19,17 27,17 211,0c370,-34 540,-72 513,-115c-25,-41 -364,-90 -825,-120c-86,-6 63,-9 483,-10l607,-1v2605v2605h-2690h-2690zM2192,5098c113,-52 202,-170 213,-283l5,-50l-14,46c-18,61 -63,142 -94,171l-26,23l22,-32c24,-34 52,-106 52,-132c0,-9 -11,7 -24,34c-78,168 -317,224 -506,119l-45,-25l40,42l40,41l-35,-17c-19,-10 -57,-33 -83,-52c-33,-23 -45,-28 -38,-15c17,31 87,90 141,117c71,36 113,44 210,42c67,-3 97,-9 142,-29zM1653,4941c11,-45 115,-85 267,-103c72,-8 129,-8 233,1c77,7 145,15 153,18c10,4 14,-4 14,-31c0,-20 -4,-36 -10,-36c-5,0 -10,7 -10,16c0,22 -22,12 -38,-17l-13,-24l4,28c4,28 4,28 -36,21c-76,-12 -319,-6 -397,10c-84,18 -195,68 -204,92c-6,16 9,44 24,44c4,0 10,-9 13,-19zM3060,4905c462,-70 884,-255 1235,-540c122,-99 323,-308 416,-430c258,-344 418,-730 486,-1172c21,-138 24,-527 4,-658c-44,-301 -123,-556 -249,-808c-76,-152 -85,-167 -98,-150c-17,23 -17,43 2,68c18,24 10,101 -14,128c-13,15 -14,23 -4,50c14,39 0,101 -29,133c-12,12 -19,35 -19,58c0,43 -22,89 -61,128c-15,16 -26,35 -23,43c7,16 -51,105 -68,105c-16,0 -58,41 -58,56c0,19 -68,74 -91,74c-12,0 -33,13 -48,29c-36,39 -83,61 -136,65c-27,2 -54,11 -66,22c-18,16 -37,19 -120,19c-54,0 -102,5 -108,10c-5,6 -18,55 -29,109c-17,84 -18,103 -7,120c11,18 11,34 -1,101c-7,44 -17,81 -21,83c-38,13 -36,22 10,63c88,77 131,211 110,340c-6,35 -14,71 -18,80c-9,23 34,33 55,14c78,-70 124,151 49,232c-34,35 -119,83 -150,83c-35,0 -172,69 -246,124c-32,23 -106,85 -163,136c-122,108 -242,190 -337,229c-43,18 -67,33 -66,42c3,15 -53,53 -122,85c-43,20 -105,78 -229,218c-92,102 -106,110 -330,181c-80,26 -146,49 -146,52c0,3 12,19 26,36c18,22 24,38 20,56c-5,28 20,107 41,129c19,20 17,128 -2,136c-8,3 -15,14 -15,24c0,11 -6,38 -14,60l-15,41l32,6c111,18 467,12 617,-10zM1800,4789c25,-6 101,-15 170,-19l125,-7l-110,-1c-107,-2 -217,15 -254,39c-18,11 -17,11 69,-12zM2290,4786c0,-3 -4,-8 -10,-11c-5,-3 -10,-1 -10,4c0,6 5,11 10,11c6,0 10,-2 10,-4zM1694,4720c43,-11 94,-29 114,-40c37,-20 38,-20 203,-2c141,16 172,23 200,42l32,24l-19,-33c-22,-37 -12,-34 -219,-66l-160,-25l-80,40c-44,21 -109,44 -145,50c-118,21 -133,28 -64,29c33,1 96,-8 138,-19zM2429,4714c-31,-33 -83,-60 -188,-95c-108,-37 -181,-48 -181,-27c0,11 19,19 63,28c96,19 240,67 278,94c45,32 58,32 28,0zM1652,4592l2,-87l3,83c2,45 7,82 11,82c4,0 7,-39 7,-86c1,-63 4,-87 15,-94c17,-11 13,-15 -22,-24c-30,-7 -31,-5 -43,87c-7,55 3,139 16,131c5,-3 10,-44 11,-92zM1598,4618c-1,-29 1,-113 3,-186l6,-133l-60,-37c-33,-20 -82,-57 -109,-81c-61,-56 -73,-94 -64,-221c4,-52 11,-165 16,-250c11,-169 19,-229 52,-363c19,-81 20,-109 16,-312c-4,-173 -2,-231 9,-255c23,-55 19,-60 -44,-60c-32,0 -75,-5 -96,-11c-33,-9 -41,-18 -64,-67c-14,-31 -30,-65 -34,-74c-29,-58 16,-165 116,-274l65,-72l-21,-47c-18,-41 -19,-48 -6,-58c9,-7 45,-37 81,-67c66,-56 72,-75 15,-46c-41,20 -107,20 -148,0c-22,-11 -44,-14 -67,-9c-36,6 -124,-19 -124,-36c0,-12 -55,-39 -80,-39c-30,0 -100,-47 -100,-68c0,-19 -34,-45 -62,-47c-10,-1 -19,-4 -21,-6c-1,-2 -17,-21 -35,-42c-18,-21 -30,-42 -27,-47c9,-15 -13,-48 -42,-62c-35,-17 -73,-84 -67,-118c5,-28 -1,-40 -30,-56c-27,-14 -48,-81 -41,-126c6,-31 3,-40 -18,-59c-29,-24 -47,-113 -28,-132c15,-15 14,-57 -2,-57c-31,0 -183,309 -251,507c-49,144 -86,297 -113,468c-23,151 -24,535 0,688c84,548 310,1012 677,1391c188,195 367,334 585,455c60,34 111,61 112,61c1,0 2,-24 1,-52zM2430,4645c0,-14 -175,-85 -209,-85c-9,0 13,11 49,24c36,12 85,32 110,43c54,26 50,24 50,18zM2046,4564c6,-49 4,-58 -17,-80c-40,-42 -155,-94 -210,-94c-26,0 -51,5 -54,10c-4,6 8,10 29,10c46,0 134,33 185,70c39,29 41,32 41,85c0,71 17,71 26,-1zM1958,4546c2,-41 -1,-62 -10,-67c-15,-10 -25,23 -27,89c-1,36 2,43 17,40c13,-3 18,-15 20,-62zM1832,4553l1,-48l6,50l6,50l7,-40c4,-22 7,-58 7,-80c-1,-39 -2,-39 -9,-10l-8,30l-1,-33c-1,-22 -5,-32 -13,-30c-18,6 -28,158 -10,158c8,0 13,-17 14,-47zM1895,4535c7,-65 2,-90 -16,-80c-12,8 -12,145 0,145c5,0 12,-29 16,-65zM2355,4550c-5,-21 -3,-30 6,-30c36,0 -146,-149 -254,-209c-72,-40 -314,-127 -324,-117c-3,2 42,27 100,54c229,108 377,212 377,264c0,21 9,29 48,46c26,11 48,21 50,21c2,1 1,-12 -3,-29zM2044,4449c-57,-60 -187,-120 -220,-101c-13,7 -9,11 22,16c52,10 130,46 179,85c51,39 56,39 19,0zM1726,4413c16,-21 37,-46 48,-55c18,-15 18,-18 4,-18c-15,0 -46,31 -75,76c-12,19 -13,19 -28,0c-16,-21 -21,-51 -6,-42c5,3 11,-1 14,-9c4,-8 28,-25 54,-39c26,-14 44,-25 38,-25c-5,0 -21,6 -35,14c-32,18 -50,19 -50,1c0,-7 14,-19 30,-26c17,-7 33,-17 36,-22c7,-11 -67,19 -80,32c-6,6 -5,14 1,22c8,9 7,17 -5,27c-14,13 -15,7 -9,-63c6,-88 2,-92 -19,-15c-22,84 -19,143 9,162c33,24 43,21 73,-20zM2276,4226c-10,-33 -31,-70 -55,-97l-40,-44l-1,60c-2,93 -11,105 -38,50c-24,-50 -30,-51 -96,-18l-29,15l84,45c46,24 107,62 134,82l50,38l3,-39c2,-21 -4,-63 -12,-92zM1724,4232c-6,-9 -44,20 -44,33c0,10 7,8 23,-8c13,-12 22,-23 21,-25zM1704,4204c3,-8 2,-12 -4,-9c-6,3 -10,10 -10,16c0,14 7,11 14,-7zM1915,3984c74,-1 153,-10 240,-27c72,-14 152,-29 178,-32c65,-9 61,-34 -8,-50c-27,-7 -76,-24 -108,-38c-75,-34 -130,-49 -152,-41c-21,9 47,50 124,74c42,13 49,18 32,23c-37,9 -132,-10 -239,-48c-56,-21 -105,-35 -108,-32c-10,10 7,48 38,83c17,19 28,37 26,39c-3,3 -32,-7 -64,-22c-61,-28 -149,-41 -172,-25c-12,8 -11,15 3,41c26,52 54,74 78,65c12,-5 72,-9 132,-10zM2535,3869c42,-11 44,-13 38,-38c-3,-14 -7,-27 -8,-29c-2,-2 -26,5 -54,15c-48,16 -64,37 -44,56c9,9 17,9 68,-4zM3252,3811c94,-40 213,-123 348,-242c63,-56 150,-124 193,-152c42,-28 77,-54 77,-59c0,-24 -146,7 -158,35c-2,4 -10,7 -18,7c-9,0 -36,16 -61,35c-26,20 -58,38 -72,41c-14,3 -37,10 -51,14c-24,8 -24,8 5,9c17,0 51,-4 78,-8c26,-4 47,-5 47,-1c0,14 -117,60 -189,75c-87,18 -99,24 -140,70c-24,27 -31,45 -31,76c0,32 -4,41 -24,49c-13,5 -26,14 -28,21c-2,6 -19,17 -38,23c-37,12 -53,36 -23,36c10,0 48,-13 85,-29zM2678,3804c29,-12 44,-34 23,-34c-21,0 -101,40 -101,50c0,12 20,8 78,-16zM3008,3773c13,-6 15,-22 6,-46c-4,-12 -12,-13 -37,-6c-40,11 -46,11 -27,-1c12,-8 12,-10 -5,-10c-41,0 -50,15 -36,59l12,41l37,-16c20,-9 43,-18 50,-21zM1990,3744c36,-8 92,-18 125,-23l60,-9l-55,-1c-30,0 -86,6 -125,14c-42,9 -123,15 -202,15c-125,0 -163,4 -163,19c0,12 295,0 360,-15zM3135,3710c-6,-45 -4,-52 17,-70l23,-21l-39,16c-21,8 -40,15 -42,15c-2,0 -4,8 -4,18c0,13 -2,14 -9,4c-10,-16 -61,-6 -61,13c0,6 5,26 11,44c10,29 14,31 61,31h50zM3249,3713c0,-16 -4,-37 -9,-48c-7,-16 -9,-13 -9,16c-1,19 -6,40 -13,47c-9,9 -7,12 10,12c18,0 22,-6 21,-27zM2695,3584c28,-13 58,-29 67,-36c15,-11 29,-7 93,25c41,20 81,37 89,37c7,0 42,-12 78,-27c50,-21 79,-43 122,-89l56,-61l-22,-19c-47,-42 -78,-105 -78,-162c0,-53 1,-55 58,-108c40,-38 65,-54 85,-54c15,0 27,-4 27,-9c0,-5 3,-16 6,-24c5,-13 -2,-13 -53,-1c-77,18 -232,17 -313,-2c-60,-14 -212,-81 -272,-120c-26,-17 -28,-17 -47,0c-10,9 -29,44 -41,77c-21,55 -22,72 -17,192c3,75 17,190 31,266c14,74 26,138 26,143c0,12 47,0 105,-28zM3210,3560c0,-17 68,-86 104,-105c32,-18 49,-45 28,-45c-17,0 -103,63 -121,88c-36,53 -43,72 -26,72c8,0 15,-4 15,-10zM3440,3441c0,-16 3,-43 6,-60c4,-19 2,-31 -4,-31c-6,0 -12,24 -14,53c-3,51 -4,52 -38,58l-35,6l43,2c40,1 42,0 42,-28zM3594,3425l29,-23l-38,-8c-30,-5 -40,-3 -47,10c-5,9 -17,16 -26,16c-15,1 -15,2 2,15c27,21 46,18 80,-10zM3268,3391c15,-10 46,-28 70,-40c35,-18 42,-26 42,-51c0,-26 -4,-30 -37,-35c-66,-11 -68,-11 -67,12c0,18 -2,20 -13,11c-21,-17 -43,-64 -43,-90c0,-47 -23,2 -30,64c-6,58 -8,60 -15,30c-10,-44 -25,-51 -25,-12c0,37 13,65 48,103c30,32 36,33 70,8zM3590,3328c0,-12 -15,-10 -75,13c-77,29 -69,41 10,15c36,-11 65,-24 65,-28zM3694,3349c9,-46 7,-79 -4,-79c-5,0 -10,20 -10,45v45h-37c-28,0 -34,3 -23,10c8,5 27,10 41,10c22,0 28,-6 33,-31zM3844,3334c77,-11 51,-23 -41,-19c-104,4 -105,5 -73,15c33,11 58,11 114,4zM3371,3193l1,-28l7,30c8,36 17,25 26,-30c6,-37 5,-39 -9,-21c-9,12 -16,14 -16,7c0,-7 -9,-11 -22,-9c-16,2 -24,12 -29,35c-7,36 -4,43 23,43c13,0 18,-8 19,-27zM3911,3203c12,-15 12,-16 -4,-10c-10,4 -36,7 -58,7c-21,0 -39,5 -39,10c0,18 86,12 101,-7zM3319,3140c1,-13 0,-13 -9,0c-8,12 -10,10 -11,-10l-1,-25l-8,25c-4,14 -8,34 -9,45c-1,16 1,17 9,5c8,-12 10,-12 11,5c1,17 2,16 9,-5c4,-14 8,-32 9,-40zM3965,3179c11,-17 2,-18 -19,-3c-17,12 -17,14 -4,14c9,0 20,-5 23,-11zM3620,3140c-19,-10 -56,-21 -82,-25c-26,-4 -59,-16 -73,-27c-23,-18 -45,-17 -45,2c0,15 62,53 99,61c20,4 59,7 86,7l50,1zM3760,3127c-14,-13 -46,-32 -72,-41c-45,-16 -134,-74 -126,-81c2,-2 29,-5 61,-6c81,-3 71,-19 -13,-19c-59,0 -71,-3 -80,-20c-10,-19 -8,-20 65,-20h75v-30v-29l-82,-3l-83,-3l2,-40c2,-39 2,-39 -8,-10c-13,40 -4,115 20,163c34,67 122,131 208,151c57,14 59,13 33,-12zM3915,3140c4,-6 -5,-10 -21,-10c-39,0 -99,-67 -119,-132c-34,-115 -11,-265 52,-330c24,-25 25,-28 7,-28c-15,0 -16,-2 -4,-10c9,-6 17,-5 21,2c5,7 16,7 35,1c29,-10 29,-10 6,-17c-110,-36 -212,114 -199,289c7,91 38,164 88,210c32,29 47,35 83,35c25,0 48,-4 51,-10zM3375,3112c-22,-2 -44,-8 -49,-13c-13,-12 -29,-12 -21,1c9,14 67,28 90,21c14,-4 7,-7 -20,-9zM3421,2933c15,-81 30,-160 33,-175c7,-35 -21,-40 -29,-5c-21,86 -63,332 -59,339c14,22 28,-18 55,-159zM3384,2909c31,-159 35,-191 21,-178c-6,7 -65,315 -65,342c0,45 11,3 44,-164zM3968,3056c70,-80 65,-278 -9,-357c-34,-36 -71,-38 -104,-4c-34,33 -31,41 13,48c41,7 82,32 82,50c0,9 -2,9 -8,0c-10,-16 -95,-38 -115,-30c-10,4 -17,13 -17,22c0,19 32,33 38,17c2,-7 9,-9 15,-5c7,4 23,9 37,11c13,2 30,7 36,13c6,5 14,6 17,2c4,-3 7,22 7,57c0,59 1,62 15,44c14,-18 15,-16 9,21c-10,64 -36,108 -74,127l-35,18h31c24,0 40,-9 62,-34zM3045,2958c37,-40 58,-117 53,-189c-4,-54 -20,-59 -46,-15c-47,80 -112,88 -249,31c-204,-85 -215,-88 -295,-89c-42,-1 -80,3 -85,7c-17,17 193,175 317,238c93,47 137,59 209,56c59,-3 66,-6 96,-39zM3870,2979c0,-5 -4,-9 -10,-9c-5,0 -10,7 -10,16c0,8 5,12 10,9c6,-3 10,-10 10,-16zM3900,2990c0,-5 -2,-10 -4,-10c-3,0 -8,5 -11,10c-3,6 -1,10 4,10c6,0 11,-4 11,-10zM3947,2931c4,-27 2,-41 -6,-41c-6,0 -11,15 -12,33c0,17 -2,40 -4,51c-2,12 0,15 6,9c6,-6 13,-29 16,-52zM3293,2953c4,-2 7,-10 7,-16c0,-8 -15,-11 -44,-9c-39,3 -46,1 -62,-23c-15,-22 -16,-41 -10,-140c8,-130 -1,-180 -39,-215c-19,-18 -112,-49 -382,-126c-197,-57 -359,-101 -362,-99c-2,3 3,15 11,27c13,19 71,39 344,117c181,52 337,99 347,104c36,17 48,70 45,200c-1,67 1,133 6,145c14,41 95,61 139,35zM3843,2946c7,-19 0,-25 -24,-19c-10,3 -19,12 -19,19c0,18 36,18 43,0zM3880,2940c0,-11 -4,-20 -10,-20c-5,0 -10,9 -10,20c0,11 5,20 10,20c6,0 10,-9 10,-20zM3910,2945c0,-8 -4,-15 -10,-15c-5,0 -10,7 -10,15c0,8 5,15 10,15c6,0 10,-7 10,-15zM3920,2900c0,-11 -4,-20 -10,-20c-5,0 -10,9 -10,20c0,11 5,20 10,20c6,0 10,-9 10,-20zM3890,2890c0,-11 -4,-20 -9,-20c-14,0 -23,18 -16,30c10,17 25,11 25,-10zM3850,2880c8,-14 8,-26 0,-40c-17,-31 -25,-24 -25,20c0,44 8,51 25,20zM3946,2843c-11,-11 -19,6 -11,24c8,17 8,17 12,0c3,-10 2,-21 -1,-24zM3660,2861c0,-5 3,-16 6,-25c5,-12 0,-16 -20,-16c-21,0 -26,5 -26,25c0,18 5,25 20,25c11,0 20,-4 20,-9zM3890,2840c0,-11 -7,-20 -15,-20c-17,0 -18,2 -9,24c9,23 24,20 24,-4zM3920,2845c0,-8 -4,-15 -10,-15c-5,0 -10,7 -10,15c0,8 5,15 10,15c6,0 10,-7 10,-15zM3680,2763c0,-10 11,-38 25,-62c30,-52 30,-51 5,-51c-19,0 -60,59 -75,108c-5,19 -3,22 19,22c18,0 26,-5 26,-17zM3464,2693c2,-10 8,-37 11,-60c7,-42 6,-43 -23,-43c-27,0 -30,3 -40,52c-7,39 -7,55 1,60c21,13 46,9 51,-9zM3517,2639c6,-29 10,-56 7,-58c-11,-12 -33,28 -40,73c-10,69 17,57 33,-15zM3391,2575c-3,-5 -10,15 -17,45c-6,30 -8,60 -5,65c3,6 10,-15 17,-45c6,-30 8,-59 5,-65zM1470,2660c-14,-4 -39,-8 -57,-9c-44,-1 -49,-16 -18,-56c20,-27 33,-35 57,-35c27,0 29,-2 17,-16c-11,-14 -9,-20 19,-45c30,-27 36,-29 89,-23c41,5 54,4 49,-4c-4,-7 -20,-12 -37,-12c-43,0 -36,-16 19,-44c41,-21 55,-23 88,-16c51,12 64,12 64,0c0,-5 -16,-10 -35,-10c-34,0 -48,-14 -22,-23c6,-2 0,-2 -14,0c-20,3 -32,-3 -48,-24c-15,-19 -19,-21 -12,-6c18,35 14,41 -49,73l-59,30l-21,-22c-22,-24 -27,-18 -8,12c11,17 8,24 -22,55c-40,41 -52,43 -74,13c-15,-22 -16,-21 -1,9c14,31 14,35 -7,68c-25,37 -52,45 -62,19c-4,-9 -9,-14 -12,-11c-3,3 2,17 11,31c10,14 15,32 12,38c-3,10 16,13 77,15c55,1 73,-1 56,-7zM3365,2600c8,-69 -9,-47 -20,25c-4,34 -3,47 4,40c5,-5 13,-35 16,-65zM3009,2646c-9,-8 -461,-147 -466,-143c-11,11 395,141 456,146c8,0 12,-1 10,-3zM3765,2630c18,-8 17,-9 -7,-9c-16,-1 -28,4 -28,9c0,12 8,12 35,0zM3696,2552c103,-43 140,-64 142,-78c2,-10 8,-23 13,-29c6,-6 7,4 3,25c-4,19 -12,38 -18,43c-16,11 14,28 44,25c21,-3 26,-10 36,-60l11,-58h-44c-40,0 -94,19 -320,114c-4,2 -15,76 -10,76c2,0 67,-26 143,-58zM3328,2568c-3,-7 -84,-44 -182,-84l-177,-71l-277,-275c-154,-154 -288,-279 -302,-283c-16,-4 82,100 270,287l295,294l180,71c99,40 184,72 188,72c5,1 7,-5 5,-11zM3525,2561c3,-6 -15,-9 -42,-9c-27,1 -62,-6 -80,-16c-40,-20 -45,-3 -5,18c30,17 118,21 127,7zM1329,2473c100,-138 171,-181 332,-203c116,-15 133,-20 123,-30c-9,-9 -192,18 -271,39c-32,9 -48,9 -64,0c-19,-10 -28,-5 -81,48c-65,64 -118,140 -118,168c0,11 20,-11 49,-51c50,-71 87,-111 96,-102c3,3 -9,22 -26,44c-43,53 -109,155 -109,168c0,13 4,8 69,-81zM3504,2280c26,-137 46,-255 43,-262c-6,-17 -10,-2 -62,272c-52,271 -47,240 -37,240c4,0 30,-112 56,-250zM3544,2291c49,-256 53,-285 34,-279c-8,3 -31,99 -60,244c-53,269 -53,274 -34,274c10,0 26,-65 60,-239zM3944,2455c4,-32 3,-43 -2,-30c-13,29 -24,114 -13,95c5,-8 12,-37 15,-65zM3652,2394c51,-20 98,-42 103,-49c6,-7 20,-15 32,-19c21,-7 27,-23 49,-151c3,-16 8,-37 10,-46c3,-13 -7,-19 -43,-28c-27,-7 -55,-22 -64,-33c-10,-13 -33,-23 -62,-28l-46,-7l-11,51c-29,142 -66,346 -63,346c1,0 45,-16 95,-36zM3944,2391c3,-5 -16,-8 -43,-8c-30,1 -59,-6 -75,-16c-14,-9 -28,-17 -32,-17c-12,0 20,32 41,40c27,12 103,12 109,1zM3904,2240c10,-52 19,-103 22,-112c3,-10 1,-18 -4,-18c-9,0 -53,204 -52,240c1,36 18,-19 34,-110zM3941,2270c9,-47 19,-102 23,-122c5,-31 4,-38 -8,-38c-17,0 -17,1 -41,130c-9,47 -19,93 -22,103c-4,14 0,18 13,15c15,-2 22,-21 35,-88zM3448,2155c40,-212 40,-216 2,-243c-16,-13 -30,-31 -30,-41c0,-19 -36,-58 -46,-49c-3,3 4,21 15,39c18,29 21,51 21,137c0,113 2,109 -82,177l-38,30l57,68c31,37 59,64 63,60c4,-4 21,-85 38,-178zM2795,2301c-12,-11 -103,-43 -220,-76c-110,-32 -206,-60 -212,-62c-7,-3 -13,2 -13,11c0,10 19,21 58,32c169,50 388,112 397,113c5,1 1,-7 -10,-18zM1485,2210c-8,-16 -15,-33 -15,-39c0,-5 50,-51 110,-102c61,-51 110,-96 110,-100c0,-28 -33,-9 -135,77c-63,53 -115,98 -115,101c0,7 32,67 42,81c18,21 19,13 3,-18zM2964,2175c88,-53 97,-56 206,-70c62,-8 118,-15 124,-15c6,0 -7,15 -29,33c-75,61 -90,79 -35,41c95,-66 132,-96 123,-104c-4,-4 -75,1 -158,12c-127,16 -159,24 -205,50c-52,29 -54,29 -32,6c25,-28 27,-37 10,-73c-16,-36 -43,-32 -123,21c-39,26 -72,49 -74,51c-5,3 89,103 97,103c2,0 45,-25 96,-55zM1542,2163c7,-9 7,-13 0,-13c-19,0 -34,29 -26,52l8,23l4,-25c2,-14 9,-31 14,-37zM1588,2176c-9,-22 -9,-32 0,-47c14,-23 0,-26 -18,-4c-11,13 -10,22 4,52c9,19 19,33 22,31c3,-3 -1,-18 -8,-32zM1655,2173c-25,-62 -27,-74 -15,-88c7,-9 8,-15 2,-15c-5,0 -15,7 -22,15c-9,11 -8,24 5,60c10,25 22,45 27,45c6,0 7,-8 3,-17zM1700,2119c-17,-41 -19,-58 -11,-71c13,-21 -1,-24 -18,-4c-9,11 -7,26 9,67c25,61 30,72 36,66c3,-2 -5,-29 -16,-58zM2315,1953c5,-96 4,-133 -4,-133c-6,0 -11,5 -11,12c0,6 -5,74 -11,150c-6,77 -7,147 -3,156c11,27 21,-35 29,-185zM2847,2051l91,-59l176,-26c97,-14 185,-26 195,-26c12,0 23,11 29,28c10,27 10,26 11,-10c1,-47 8,-47 -239,-10l-185,28l-93,62c-50,35 -92,65 -92,67c0,12 22,1 107,-54zM2835,2020l90,-57l190,-27c182,-26 264,-44 205,-45c-14,0 -110,12 -215,27l-190,28l-97,63c-54,35 -98,67 -98,73c0,11 -4,13 115,-62zM2814,1996l101,-64l195,-27c107,-15 199,-31 204,-36c15,-14 -12,-11 -220,20l-191,29l-106,67c-59,36 -107,68 -107,71c0,13 34,-3 124,-60zM2790,1970c105,-67 114,-70 200,-82c50,-6 87,-15 82,-20c-4,-4 -46,-3 -93,3c-79,11 -91,16 -196,83c-98,62 -128,86 -108,86c3,0 55,-31 115,-70zM4108,2011c4,-11 -5,-13 -43,-8c-26,4 -77,7 -113,7c-80,0 -76,9 9,18c79,9 141,2 147,-17zM2821,1909c45,-30 71,-40 137,-50c45,-7 82,-17 82,-22c0,-5 -15,-7 -32,-4c-18,3 -55,9 -83,13c-39,5 -76,24 -168,83c-65,43 -115,80 -111,83c6,6 61,-26 175,-103zM4260,1970c62,-31 68,-38 49,-57c-8,-8 -28,-1 -72,25c-34,20 -64,37 -66,38c-6,5 10,24 20,24c5,0 36,-14 69,-30zM2752,1916c101,-65 124,-75 186,-85c39,-6 74,-11 78,-11c5,0 4,-4 -1,-9c-6,-6 -40,-4 -85,3c-67,11 -87,20 -192,89c-65,42 -118,79 -118,82c0,13 24,0 132,-69zM3610,1976c0,-7 3,-28 6,-45c6,-29 5,-31 -24,-31c-31,0 -42,17 -42,68c0,18 6,22 30,22c19,0 30,-5 30,-14zM3638,1915c0,-16 -2,-15 -8,5c-4,14 -8,34 -8,45c0,16 2,15 8,-5c4,-14 8,-34 8,-45zM4390,1938c0,-10 -25,2 -55,26c-17,14 -14,14 18,-1c20,-9 37,-21 37,-25zM2880,1809c19,-4 57,-10 84,-14c26,-4 44,-10 40,-15c-5,-4 -43,-2 -84,4c-67,11 -88,20 -197,90c-68,43 -120,82 -117,87c2,4 57,-26 122,-68c64,-42 133,-80 152,-84zM3538,1905l1,-20l-9,20c-8,18 -9,18 -10,-5c-1,-23 -2,-23 -10,-5c-5,11 -9,31 -9,45c0,23 1,23 9,5c8,-18 9,-18 10,5l2,25l8,-25c4,-14 8,-34 8,-45zM1755,1916l30,-24l-43,-62c-45,-63 -49,-80 -14,-61c37,20 38,11 2,-20c-53,-45 -104,-77 -141,-87l-34,-9l55,-27c37,-19 45,-25 25,-21c-16,3 -42,9 -58,12c-15,3 -34,0 -43,-8c-13,-10 -17,-10 -25,2c-27,42 4,124 50,134c38,8 94,69 128,140c15,30 30,55 33,55c3,0 19,-11 35,-24zM2724,1856c106,-69 120,-75 195,-86c45,-7 81,-17 81,-22c0,-6 -14,-8 -32,-5c-18,3 -55,9 -83,13c-39,5 -76,23 -167,82c-100,64 -135,92 -113,92c2,0 56,-33 119,-74zM4151,1868c471,-224 425,-1055 -78,-1406c-133,-93 -313,-133 -452,-101c-132,30 -268,144 -334,279c-62,126 -80,219 -74,384c6,206 53,360 158,519c51,78 154,197 170,197c22,0 5,-36 -42,-88c-112,-126 -185,-265 -230,-438c-31,-120 -32,-312 -1,-425c87,-325 355,-477 646,-369c224,84 421,320 497,595c30,109 37,319 15,425c-61,288 -282,466 -535,430c-69,-10 -196,-53 -207,-71c-10,-16 -34,-9 -34,10c0,13 17,26 58,44c102,46 158,57 268,54c92,-3 109,-7 175,-39zM4529,1837c28,-30 42,-51 38,-61c-11,-27 -30,-17 -74,40c-75,94 -50,109 36,21zM1428,1860c45,-32 50,-45 28,-75c-12,-17 -15,-17 -50,11c-28,23 -36,36 -36,62c0,17 4,32 8,32c5,0 28,-14 50,-30zM1543,1874c25,-8 21,-31 -6,-36c-16,-3 -35,5 -58,25l-34,29l40,-6c22,-4 48,-9 58,-12zM2718,1821c99,-64 113,-70 190,-81c45,-7 85,-16 88,-21c7,-12 -15,-11 -106,5c-66,11 -88,20 -187,85c-62,40 -113,75 -113,77c0,13 32,-3 128,-65zM3635,1880c4,-6 -11,-10 -39,-10c-25,0 -48,-4 -51,-10c-3,-5 -11,-10 -16,-10c-16,0 1,21 25,30c29,12 74,12 81,0zM1310,1870c0,-5 -7,-10 -15,-10c-8,0 -15,5 -15,10c0,6 7,10 15,10c8,0 15,-4 15,-10zM4439,1834c46,-53 48,-59 23,-73c-14,-8 -26,1 -65,45c-27,30 -45,58 -42,64c13,22 45,8 84,-36zM2272,1826c-3,-5 -9,-1 -12,10c-4,10 -5,23 -2,28c3,5 9,1 12,-10c4,-10 5,-23 2,-28zM2240,1843c0,-7 -7,-13 -15,-13c-21,0 -27,-1 -53,-11c-12,-5 -35,-11 -50,-14c-76,-16 -92,-17 -92,-7c0,11 20,20 62,28c13,2 46,10 73,17c64,17 75,17 75,0zM2715,1784c95,-59 105,-63 204,-77c96,-15 121,-21 110,-31c-2,-2 -54,4 -115,14c-109,16 -113,18 -218,84c-58,38 -106,72 -106,78c0,11 -7,14 125,-68zM3295,1838c7,-7 -6,-9 -37,-5c-53,5 -56,-6 -6,-18l33,-8l-29,-4c-23,-4 -26,-7 -15,-15c11,-7 11,-11 2,-15c-7,-2 -13,-11 -13,-19c0,-8 -4,-14 -10,-14c-5,0 -10,13 -10,28c0,34 -16,52 -48,52c-34,0 -60,-17 -77,-50c-19,-38 -19,-75 1,-106c9,-13 14,-27 12,-30c-3,-3 -74,5 -157,17l-151,23l-106,68c-59,38 -104,72 -101,75c4,3 54,-24 112,-61l105,-66l128,-19c70,-10 128,-17 130,-16c2,2 -2,13 -8,25c-27,51 27,150 94,169c36,11 136,3 151,-11zM3606,1768c19,-89 18,-108 -5,-108c-21,0 -24,6 -41,94c-11,54 -10,61 6,73c10,7 20,11 22,8c2,-2 10,-32 18,-67zM2444,1808c37,-53 7,-173 -49,-193c-38,-13 -65,20 -65,80c0,106 71,175 114,113zM2543,1800c32,0 17,-44 -15,-48c-22,-3 -28,-8 -28,-29c0,-24 -29,-97 -36,-90c-2,1 4,23 12,47c15,43 14,94 -1,132c-7,17 -5,17 21,3c16,-8 37,-15 47,-15zM3640,1773c6,-32 14,-68 17,-80c3,-13 0,-23 -5,-23c-6,0 -16,26 -22,58c-6,31 -13,67 -16,80c-2,12 0,22 5,22c5,0 15,-26 21,-57zM2008,1790c-14,-22 -24,-19 -15,5c4,8 11,15 17,15c6,0 6,-7 -2,-20zM2706,1711c78,-49 81,-50 232,-72c83,-13 152,-27 152,-32c0,-5 -15,-7 -32,-3c-18,3 -89,13 -157,22l-123,17l-96,62c-53,34 -98,68 -101,76c-3,10 2,9 21,-3c14,-10 61,-39 104,-67zM3184,1763c31,-61 44,-101 36,-113c-6,-9 -18,7 -40,50c-41,81 -62,69 -25,-15c14,-32 24,-64 21,-72c-17,-44 -486,-841 -508,-863c-32,-32 -133,-93 -180,-109c-27,-9 -54,-8 -124,4c-171,30 -494,108 -494,120c0,17 38,55 55,55c8,0 117,-30 242,-66c126,-36 248,-67 273,-67c35,-1 58,7 106,36c34,21 70,48 82,60c11,12 125,200 253,417c247,420 240,403 224,506c-9,52 7,84 40,84c17,0 29,-9 39,-27zM2208,1729c2,-23 -2,-40 -12,-48c-17,-15 -36,-7 -36,15c0,8 5,12 10,9c6,-3 10,3 10,15c0,12 -4,18 -10,15c-11,-7 -14,18 -3,29c17,17 38,-1 41,-35zM2278,1753c2,-8 -6,-13 -22,-13c-17,0 -26,5 -26,16c0,19 41,16 48,-3zM1944,1573c-52,-163 -109,-298 -148,-348c-28,-37 -16,-4 33,88c32,60 67,152 101,262c54,177 59,189 67,182c2,-3 -21,-85 -53,-184zM4045,1740c4,-6 -7,-10 -27,-10c-25,0 -29,3 -18,10c19,13 37,13 45,0zM4183,1711l38,-16l-57,-77c-32,-43 -59,-76 -61,-75c-9,10 -29,138 -22,143c5,3 9,16 9,30c0,22 3,24 28,18c15,-4 44,-14 65,-23zM1286,1700c57,-32 94,-72 94,-101c0,-28 -9,-24 -47,20c-114,134 -274,97 -401,-93c-102,-153 -154,-343 -156,-571c-1,-212 42,-368 130,-465c111,-123 255,-99 378,64c47,62 97,161 122,239c10,31 21,57 26,57c21,0 19,-36 -6,-102c-82,-223 -226,-368 -365,-368c-178,0 -303,203 -318,515c-14,289 76,580 226,734c101,104 216,130 317,71zM2275,1720c-3,-5 -13,-10 -21,-10c-8,0 -14,5 -14,10c0,6 9,10 21,10c11,0 17,-4 14,-10zM3960,1720c-19,-13 -30,-13 -30,0c0,6 10,10 23,10c18,0 19,-2 7,-10zM4653,1663c31,-60 34,-70 22,-87c-13,-17 -17,-17 -36,-5c-24,16 -62,106 -48,115c5,3 9,14 9,25c0,35 17,20 53,-48zM3936,1660c8,0 14,-4 14,-9c0,-5 3,-16 6,-25c4,-11 0,-16 -14,-16c-26,0 -29,4 -36,65c-5,46 -5,48 6,18c6,-18 17,-33 24,-33zM4060,1710c11,-7 4,-9 -25,-8c-22,0 -51,-4 -64,-11c-12,-7 -25,-10 -28,-8c-8,9 50,36 77,36c14,1 32,-4 40,-9zM4549,1673c34,-68 35,-80 6,-86c-24,-4 -29,1 -51,51c-30,68 -30,72 1,72c18,0 29,-9 44,-37zM1453,1663c-4,-21 -7,-108 -7,-193c0,-210 14,-267 86,-332c61,-56 103,-73 143,-58c38,15 40,8 9,-30c-54,-64 -115,-60 -179,12c-84,92 -112,222 -101,462c5,109 10,144 23,158c25,28 35,21 26,-19zM2721,1619c17,-12 68,-25 135,-35c114,-17 137,-23 88,-25c-29,-1 -29,-1 -4,-9c14,-4 19,-8 12,-9c-7,-1 -10,-6 -6,-12c4,-8 -3,-9 -22,-5c-16,3 -65,10 -109,17c-77,10 -151,42 -140,59c3,5 0,12 -6,16c-8,5 -9,3 -4,-6c5,-8 3,-11 -6,-8c-8,3 -14,10 -14,16c0,5 -4,14 -9,19c-5,5 -6,3 -2,-4c8,-15 -3,-17 -23,-4c-18,12 -4,34 18,27c14,-5 13,-4 -1,8c-10,7 -18,16 -18,20c0,6 57,-27 111,-65zM3810,1630c0,-40 -4,-51 -21,-61c-25,-13 -34,-5 -42,38c-5,28 -2,34 26,52c18,11 33,21 35,21c1,0 2,-22 2,-50zM1826,1633c-11,-11 -19,6 -11,24c8,17 8,17 12,0c3,-10 2,-21 -1,-24zM2590,1643c0,-18 90,-83 140,-101c14,-5 69,-15 122,-22c78,-10 101,-10 113,0c12,10 15,10 15,-4c0,-28 -28,-30 -150,-13c-110,15 -122,19 -193,64c-70,44 -89,67 -70,86c12,12 23,7 23,-10zM4025,1629c4,-17 5,-33 2,-36c-10,-10 -47,18 -47,36c0,42 36,42 45,0zM4065,1608c4,-23 3,-38 -3,-38c-9,0 -22,45 -22,78c0,28 18,-1 25,-40zM4353,1546c24,-58 52,-174 45,-181c-1,-1 -44,-14 -95,-28l-92,-25l-19,64l-20,64l56,105l55,106l23,-22c12,-12 34,-49 47,-83zM2164,1615c42,-28 78,-115 84,-203c3,-42 9,-80 14,-83c14,-9 -29,-130 -67,-187c-71,-105 -164,-140 -242,-92c-40,24 -44,45 -5,24c35,-18 95,-18 131,0c39,21 89,81 112,134c25,58 40,122 28,122c-5,0 -9,22 -9,48c0,55 -22,127 -50,160c-29,34 -81,53 -120,42c-27,-8 -31,-7 -26,6c3,9 6,19 6,24c0,14 53,30 87,25c17,-2 43,-11 57,-20zM3702,1622c4,-4 25,-92 46,-195c29,-138 36,-187 27,-187c-15,0 -14,-3 -55,190c-17,79 -33,146 -35,149c-14,14 -10,-20 21,-168c19,-90 32,-166 29,-169c-14,-14 -29,27 -56,154c-39,189 -38,184 -52,184c-7,0 -21,-6 -31,-13c-17,-13 -17,-19 9,-148c15,-74 29,-145 32,-158c4,-15 2,-22 -4,-18c-14,8 -77,333 -69,353c13,34 111,53 138,26zM2240,1616c0,-9 -30,-14 -35,-6c-4,6 3,10 14,10c12,0 21,-2 21,-4zM2394,1537c11,-19 35,-45 54,-58c54,-37 85,-84 77,-116l-6,-27l-18,40c-14,30 -44,59 -131,124c-98,73 -110,85 -95,96c26,19 95,-15 119,-59zM1800,1591c0,-6 -4,-13 -10,-16c-5,-3 -10,1 -10,9c0,9 5,16 10,16c6,0 10,-4 10,-9zM1889,1553c11,-32 10,-45 -2,-73l-14,-35l-17,58c-12,43 -14,62 -6,77c14,27 24,20 39,-27zM2518,1546c-4,-23 14,-55 33,-61c11,-4 33,-27 49,-51c28,-45 28,-45 14,-107c-32,-138 -93,-303 -145,-387c-26,-42 -36,-50 -60,-50c-33,0 -35,6 -14,37c70,100 174,400 161,465c-6,32 -82,155 -109,177c-32,26 -17,31 28,9c25,-12 44,-27 43,-32zM2599,1553c12,-22 -3,-53 -26,-53c-14,0 -14,2 3,14c16,13 17,18 6,35c-7,12 -8,21 -3,21c6,0 14,-8 20,-17zM3190,1558c0,-19 -18,-43 -25,-36c-4,3 -2,16 5,27c12,24 20,27 20,9zM1355,1530c14,-26 22,-151 10,-138c-3,3 -10,34 -16,69c-5,35 -12,72 -15,82c-8,27 4,20 21,-13zM4029,1546c39,-21 99,-90 121,-141c25,-58 40,-146 38,-214l-2,-56l-3,48c-3,33 -8,47 -19,47c-7,0 -14,5 -14,10c0,6 5,10 10,10c13,0 13,35 -1,83c-6,22 -16,37 -25,37c-11,0 -13,6 -9,21c9,27 -39,101 -63,97c-11,-2 -17,4 -17,15c0,11 -15,27 -35,38c-19,10 -29,18 -22,19c7,0 25,-6 41,-14zM2130,1520c104,-111 18,-393 -117,-389l-28,1l29,8c44,14 94,68 116,127c11,30 20,57 20,61c0,5 -16,6 -35,4c-35,-4 -35,-4 -35,36c0,23 -5,52 -11,65c-14,30 -52,52 -74,43c-13,-5 -15,-1 -10,17c18,62 98,77 145,27zM2560,1534c0,-8 -4,-12 -10,-9c-5,3 -10,10 -10,16c0,5 5,9 10,9c6,0 10,-7 10,-16zM3930,1540c0,-5 -4,-10 -10,-10c-5,0 -10,5 -10,10c0,6 5,10 10,10c6,0 10,-4 10,-10zM1268,1423l-3,-72l-39,33l-39,32l33,63c31,58 35,61 42,40c5,-13 7,-56 6,-96zM2375,1455l30,-24l-33,-1c-19,0 -46,-9 -62,-20l-27,-19l-6,57c-3,31 -9,66 -13,76c-6,16 1,13 37,-12c24,-18 58,-43 74,-57zM2824,1475c64,-9 121,-13 127,-9c7,4 7,-2 -1,-16c-8,-15 -18,-20 -33,-17c-12,3 -65,11 -117,17c-100,13 -180,47 -180,76c0,12 10,9 44,-11c32,-19 72,-29 160,-40zM4616,1470c13,-64 11,-70 -20,-70c-20,0 -25,7 -35,57c-15,75 -15,75 17,71c24,-3 28,-9 38,-58zM4734,1445c14,-65 14,-71 -1,-82c-23,-17 -26,-17 -50,10c-28,29 -42,117 -19,117c8,0 20,9 27,21c15,29 24,15 43,-66zM1835,1455c13,-54 13,-56 -13,-88c-14,-17 -27,-34 -29,-36c-1,-2 -16,2 -33,9c-28,11 -30,16 -25,44c11,53 16,66 26,66c5,0 19,16 31,35c11,20 23,34 25,31c3,-3 11,-30 18,-61zM3807,1484c-9,-9 -28,6 -21,18c4,6 10,6 17,-1c6,-6 8,-13 4,-17zM2729,1424c14,-32 14,-34 -3,-34c-16,0 -31,17 -40,47c-6,18 -3,20 12,16c11,-2 25,-16 31,-29zM2044,1400c6,-25 4,-45 -7,-72c-32,-76 -87,-66 -87,16c0,87 75,131 94,56zM3820,1420c0,-5 -5,-10 -11,-10c-5,0 -7,5 -4,10c3,6 8,10 11,10c2,0 4,-4 4,-10zM3992,1389c14,-11 37,-40 50,-67c33,-68 33,-229 0,-317c-28,-75 -86,-152 -132,-177c-98,-51 -200,16 -217,143c-8,55 18,50 29,-6c28,-133 132,-164 222,-64c57,63 87,141 93,244c6,97 -7,153 -48,200c-27,30 -37,35 -74,35c-32,0 -52,-7 -73,-25c-35,-30 -42,-31 -42,-7c1,19 39,50 78,62c35,11 80,2 114,-21zM3099,1367c-7,-15 -16,-27 -20,-27c-4,0 -11,-13 -17,-28c-5,-15 -82,-154 -171,-307c-108,-188 -174,-292 -201,-316c-22,-20 -77,-55 -124,-79c-80,-40 -87,-42 -142,-35c-121,14 -541,109 -558,126c-24,23 15,19 156,-14c192,-46 326,-73 401,-82c53,-7 64,-5 120,24c107,55 148,92 198,177c26,43 115,197 199,342c94,162 156,260 162,254c5,-5 4,-19 -3,-35zM2414,1381c28,-30 31,-82 8,-134c-32,-72 -94,-79 -125,-15c-15,31 -16,43 -7,79c21,76 85,113 124,70zM2718,1346c5,-23 -16,-46 -42,-45c-21,0 -21,0 2,9c26,11 28,36 5,64c-18,20 -18,20 7,4c14,-8 26,-23 28,-32zM2821,1353c11,-12 5,-14 -37,-11c-34,2 -50,8 -52,18c-2,12 6,15 37,12c22,-2 46,-11 52,-19zM2667,1340c1,-11 -2,-20 -7,-20c-10,0 -20,26 -13,34c12,11 19,6 20,-14zM4618,1344c20,-6 22,-13 22,-65c0,-59 0,-59 -30,-59h-30v65c0,36 3,65 8,65c4,0 17,-3 30,-6zM4090,1330c0,-5 -5,-10 -11,-10c-5,0 -7,5 -4,10c3,6 8,10 11,10c2,0 4,-4 4,-10zM1265,1314c50,-8 95,-21 101,-27c6,-7 17,-39 24,-72c25,-120 95,-211 181,-236c35,-11 48,-10 90,4l48,17l100,-65c56,-35 101,-66 101,-68c0,-3 -16,-21 -35,-41c-26,-28 -36,-49 -41,-87c-4,-28 -12,-53 -18,-55c-13,-5 -674,340 -697,364c-9,9 -26,46 -38,81l-21,64l24,41c26,45 71,96 83,96c4,0 49,-7 98,-16zM3955,1286c110,-110 -18,-442 -140,-362c-31,21 -32,35 -2,29c52,-10 115,79 124,177c7,74 -10,126 -49,150c-20,12 -25,20 -16,23c29,12 60,6 83,-17zM4760,1235c0,-66 -2,-76 -22,-86c-19,-10 -25,-8 -45,15c-18,21 -23,39 -23,83c0,54 1,55 18,39c18,-15 20,-15 37,4c10,11 22,20 27,20c4,0 8,-34 8,-75zM1765,1288c28,-12 30,-20 15,-49c-18,-32 -38,-23 -42,21c-2,22 -2,40 -1,40c1,0 14,-5 28,-12zM2746,1277c7,-19 -76,-248 -93,-254c-8,-3 -16,-4 -18,-1c-2,2 16,62 40,133c25,72 45,131 45,133c0,9 22,0 26,-11zM3535,1212c14,-7 8,-10 -26,-15c-24,-3 -46,-4 -48,-1c-2,2 1,22 8,45l13,42l18,-31c10,-17 26,-34 35,-40zM4405,1213c-15,-118 -27,-183 -36,-188c-7,-5 -120,46 -145,66c-6,5 -8,25 -5,50c6,41 7,42 91,80c47,21 89,39 93,39c5,0 5,-21 2,-47zM3884,1218c34,-48 11,-169 -38,-203c-37,-26 -50,-17 -22,15c43,52 56,125 31,174c-18,35 -18,36 -1,36c8,0 22,-10 30,-22zM4115,1220c3,-5 1,-10 -4,-10c-6,0 -11,5 -11,10c0,6 2,10 4,10c3,0 8,-4 11,-10zM2335,1150c25,-8 44,-9 65,-2c39,14 31,-6 -18,-45c-33,-27 -47,-30 -129,-36c-51,-4 -93,-5 -93,-2c0,3 15,24 33,48c18,24 39,58 47,76l13,33l24,-30c13,-17 39,-36 58,-42zM3700,1191c25,-47 -2,-141 -40,-141c-10,0 -22,5 -25,10c-3,6 0,10 8,10c16,0 37,41 37,70c0,11 -9,29 -19,39c-11,11 -17,22 -13,25c12,13 42,5 52,-13zM3810,1181c15,-30 13,-32 -27,-29c-31,2 -39,7 -41,26c-3,19 1,22 27,22c20,0 34,-7 41,-19zM1790,1171c0,-10 3,-39 6,-65c6,-44 6,-46 -18,-46c-24,0 -26,4 -31,58c-5,65 -3,72 24,72c12,0 19,-7 19,-19zM1830,1119c0,-38 -4,-58 -10,-54c-5,3 -10,33 -10,66c0,38 4,58 10,54c6,-3 10,-33 10,-66zM3596,1165c10,-26 -5,-67 -23,-63c-9,2 -18,9 -21,16c-2,7 2,11 8,10c7,-2 15,3 18,11c3,10 0,12 -12,8c-14,-6 -15,-3 -6,13c13,24 28,26 36,5zM3650,1159c0,-11 -27,-12 -34,0c-3,4 -3,11 0,14c8,8 34,-3 34,-14zM1895,1024c-7,-18 -27,-40 -44,-48c-37,-19 -42,-20 -66,-3c-16,13 -15,14 12,10c46,-7 57,15 54,110l-2,82l30,-59c28,-55 29,-62 16,-92zM4622,1160c11,0 1,-100 -12,-113c-4,-5 -17,-6 -29,-2c-18,5 -20,12 -15,53c8,66 12,75 30,68c9,-3 20,-6 26,-6zM3650,1130c0,-5 -7,-7 -15,-4c-8,4 -15,8 -15,10c0,2 7,4 15,4c8,0 15,-4 15,-10zM3818,1115c11,-11 -6,-15 -36,-9c-18,4 -32,11 -32,17c0,9 58,3 68,-8zM4110,1100c0,-5 -2,-10 -4,-10c-3,0 -8,5 -11,10c-3,6 -1,10 4,10c6,0 11,-4 11,-10zM4180,1095c0,-9 -6,-12 -15,-9c-8,4 -15,10 -15,15c0,5 7,9 15,9c8,0 15,-7 15,-15zM4721,1085c34,18 35,15 18,-67c-10,-48 -29,-78 -51,-78c-17,0 -48,80 -42,107c15,67 14,67 30,44c14,-20 17,-20 45,-6zM3505,1080h33l1,-89l1,-89l-42,-36c-42,-34 -43,-35 -51,-13c-11,30 -22,201 -13,222c4,10 12,15 22,11c9,-3 31,-6 49,-6zM2355,1010c-9,-17 -24,-34 -33,-37c-9,-3 -27,-17 -39,-31l-21,-25l-15,29c-8,16 -17,41 -21,56c-6,26 -5,27 51,33c32,3 65,7 73,9c22,4 23,1 5,-34zM1760,997c0,-5 -4,-5 -10,-2c-5,3 -10,14 -10,23c0,15 2,15 10,2c5,-8 10,-19 10,-23zM1823,1008c-2,-5 -13,-8 -23,-8c-10,0 -21,3 -23,8c-3,4 8,7 23,7c15,0 26,-3 23,-7zM2075,1004c-39,-17 -105,-18 -105,-1c0,8 21,12 68,13c63,1 65,0 37,-12zM2594,1001c14,-15 15,-24 6,-40c-6,-12 -18,-21 -28,-21c-16,1 -16,1 1,11c21,13 22,27 0,51c-9,10 -12,18 -6,18c5,0 18,-9 27,-19zM2703,1004c20,-4 37,-11 37,-16c0,-14 -113,-5 -118,10c-4,13 21,15 81,6zM2560,978c0,-16 -3,-19 -11,-11c-6,6 -8,16 -5,22c11,17 16,13 16,-11zM3600,984c0,-8 -4,-12 -10,-9c-5,3 -10,10 -10,16c0,5 5,9 10,9c6,0 10,-7 10,-16zM4583,987c16,-11 16,-15 1,-62c-21,-61 -18,-58 -44,-50c-19,6 -21,12 -15,42c9,48 23,83 33,83c4,0 16,-6 25,-13zM1114,959c-10,-16 -24,-9 -24,12c0,18 2,19 15,9c8,-7 12,-16 9,-21zM2200,966c0,-13 -95,-26 -193,-26c-28,0 -48,-7 -64,-22c-20,-19 -26,-20 -50,-9l-27,12l44,21c29,13 80,23 140,28c148,11 150,11 150,-4zM4140,959c0,-5 -7,-9 -15,-9c-15,0 -20,12 -9,23c8,8 24,-1 24,-14zM4261,940c38,-12 69,-26 69,-31c0,-35 -130,-244 -142,-229c-2,3 -16,36 -31,75l-27,69l28,68c15,37 29,68 31,68c2,0 35,-9 72,-20zM2640,924c0,-26 -66,-156 -86,-169c-14,-9 -27,-15 -28,-13c-8,9 87,188 100,188c8,0 14,-3 14,-6zM4680,887l30,5l-28,-68c-35,-84 -54,-92 -77,-30c-15,38 -15,50 -5,83c18,56 22,58 37,30c11,-22 18,-25 43,-20zM2546,866l-15,-36h-78c-43,0 -94,-3 -113,-6c-26,-4 -42,-1 -58,13c-23,18 -22,18 100,21c114,3 125,5 147,27c32,31 36,26 17,-19zM3680,900c0,-5 -2,-10 -4,-10c-3,0 -8,5 -11,10c-3,6 -1,10 4,10c6,0 11,-4 11,-10zM4030,890c0,-5 -2,-10 -4,-10c-3,0 -8,5 -11,10c-3,6 -1,10 4,10c6,0 11,-4 11,-10zM3630,844c0,-8 -4,-12 -10,-9c-5,3 -10,10 -10,16c0,5 5,9 10,9c6,0 10,-7 10,-16zM4070,835c0,-8 -4,-15 -10,-15c-5,0 -10,7 -10,15c0,8 5,15 10,15c6,0 10,-7 10,-15zM1160,835c0,-10 -51,-107 -54,-103c-2,1 -6,20 -9,41c-5,33 -3,39 21,52c29,15 42,18 42,10zM4523,826c17,-14 17,-16 -8,-65c-27,-55 -35,-60 -55,-36c-11,13 -9,24 10,65c26,55 27,56 53,36zM3745,810c3,-5 1,-10 -4,-10c-6,0 -11,5 -11,10c0,6 2,10 4,10c3,0 8,-4 11,-10zM1284,683l6,-68l-46,-57c-25,-32 -49,-58 -53,-58c-5,0 -20,26 -34,57l-26,57l67,97c76,110 72,111 86,-28zM3625,722c16,-25 48,-57 71,-71c32,-19 42,-31 39,-46c-2,-11 -7,-37 -10,-58c-5,-34 -9,-37 -28,-31c-58,18 -138,92 -190,176c-25,40 -21,50 26,80c37,25 43,26 52,12c6,-9 23,-37 40,-62zM3850,770c0,-5 -4,-10 -10,-10c-5,0 -10,5 -10,10c0,6 5,10 10,10c6,0 10,-4 10,-10zM4572,729c9,-25 15,-30 34,-26c13,2 24,2 24,-1c0,-16 -74,-122 -85,-122c-13,0 -35,56 -35,88c0,15 38,92 46,92c3,0 10,-14 16,-31zM1643,713c-5,-49 -21,-70 -58,-77c-21,-4 -39,-5 -42,-2c-3,2 4,25 15,49c14,32 27,47 44,50c34,6 43,2 41,-20zM3710,730c0,-5 -4,-10 -10,-10c-5,0 -10,5 -10,10c0,6 5,10 10,10c6,0 10,-4 10,-10zM3970,730c0,-5 -4,-10 -10,-10c-5,0 -10,5 -10,10c0,6 5,10 10,10c6,0 10,-4 10,-10zM4088,666c17,-30 32,-59 32,-65c0,-6 -27,-31 -60,-55c-65,-48 -124,-66 -216,-66c-54,0 -54,0 -48,28c22,87 28,94 84,109c60,15 104,40 139,77c14,14 27,26 30,26c3,0 21,-25 39,-54zM1735,688c25,-12 45,-28 45,-35c0,-8 -19,-23 -42,-33c-39,-17 -44,-18 -60,-3c-10,9 -18,22 -18,29c0,17 18,64 24,64c3,0 26,-10 51,-22zM3840,680c0,-5 -4,-10 -10,-10c-5,0 -10,5 -10,10c0,6 5,10 10,10c6,0 10,-4 10,-10zM4441,674c17,-16 17,-18 -12,-60c-16,-24 -32,-44 -34,-44c-13,0 -35,14 -35,23c0,11 52,97 59,97c3,0 12,-7 22,-16zM4480,562c0,-13 8,-26 20,-30c18,-7 16,-12 -26,-60c-25,-28 -49,-52 -54,-52c-4,0 -10,23 -12,52c-5,45 -2,56 25,95c32,44 47,43 47,-5zM1710,557c17,6 30,10 30,8c0,-3 -51,-97 -56,-104c-2,-2 -22,-7 -44,-11c-35,-6 -42,-5 -51,12c-8,16 -5,31 18,73l28,54l23,-22c20,-18 27,-20 52,-10zM1800,586c0,-3 -4,-8 -10,-11c-5,-3 -10,-1 -10,4c0,6 5,11 10,11c6,0 10,-2 10,-4zM3223,545c14,-25 22,-45 16,-45c-8,0 -49,71 -49,85c0,14 10,1 33,-40zM1590,574c0,-4 -10,-24 -22,-45c-14,-25 -27,-38 -36,-34c-7,3 -25,5 -38,5c-24,0 -24,0 -8,33c9,17 22,35 28,39c13,9 76,10 76,2zM4344,534c9,-24 -50,-94 -79,-94c-1,0 -6,7 -9,16c-7,18 48,94 69,94c7,0 16,-7 19,-16zM4371,390c20,0 7,-17 -40,-53c-26,-20 -51,-37 -55,-37c-3,0 -6,19 -6,42c0,36 6,48 43,86l42,43l3,-40c2,-23 7,-41 13,-41zM3328,411c45,-40 51,-49 36,-55c-20,-8 -59,25 -87,74c-26,43 -10,37 51,-19zM1496,439c3,-6 -7,-24 -23,-41c-27,-26 -32,-28 -56,-17l-26,12l20,28c21,30 71,40 85,18zM4230,401c-1,-14 -93,-72 -100,-65c-19,20 -13,34 30,67c40,32 46,34 58,19c6,-9 12,-18 12,-21zM1611,397l33,6l-33,-41c-18,-23 -38,-45 -44,-49c-17,-10 -91,-3 -99,10c-4,6 12,33 35,60c41,49 41,49 58,28c14,-17 24,-20 50,-14zM1381,340c20,0 7,-18 -30,-38c-32,-18 -40,-20 -50,-8c-9,11 -6,18 16,35c15,11 34,18 41,16c8,-3 18,-5 23,-5zM4080,316c0,-19 -10,-28 -52,-45c-56,-23 -55,-23 -60,2c-2,12 11,24 47,41c63,31 65,31 65,2zM4218,299c-2,-39 -5,-42 -60,-70c-62,-31 -64,-30 -47,20c10,27 79,89 102,91c4,0 7,-18 5,-41zM3501,298c32,-13 59,-26 59,-29c0,-4 -11,-10 -25,-13c-17,-4 -43,3 -85,24c-33,17 -60,32 -60,35c0,12 58,3 111,-17zM1423,286c3,-8 21,-16 39,-18l33,-3l-52,-28c-29,-15 -63,-27 -76,-27c-26,0 -68,29 -52,36c6,2 28,15 50,28c49,29 51,30 58,12zM1240,260c-8,-5 -22,-10 -30,-10c-13,0 -13,1 0,10c8,5 22,10 30,10c13,0 13,-1 0,-10zM3920,255c0,-20 -25,-31 -88,-40c-53,-7 -53,-7 -40,14c7,12 24,24 38,27c14,3 30,7 35,9c26,9 55,4 55,-10zM3702,250h51l-19,-21c-17,-19 -26,-21 -77,-15c-32,3 -63,9 -69,12c-14,9 33,35 50,29c8,-3 36,-5 64,-5zM4051,207c-10,-26 -58,-47 -108,-47c-25,0 -28,7 -14,29c11,17 125,62 129,51c1,-4 -2,-19 -7,-33zM1061,212c-7,-2 -18,1 -23,6c-8,8 -4,9 13,5c13,-4 18,-8 10,-11zM1273,188c-7,-13 -108,-9 -121,4c-21,21 -13,27 41,30c50,3 90,-15 80,-34zM3669,174c10,-9 -35,-3 -49,6c-11,8 -7,9 15,4c17,-4 32,-8 34,-10zM3866,174c-3,-9 -6,-18 -6,-20c0,-2 -31,-4 -70,-4c-106,0 -91,25 20,33c25,2 49,4 54,5c4,1 5,-5 2,-14z"></path><path d="M3700,2900c0,-5 9,-10 20,-10c11,0 20,5 20,10c0,6 -9,10 -20,10c-11,0 -20,-4 -20,-10z"></path><path d="M3700,2861c0,-21 13,-41 26,-41c8,0 14,10 14,25c0,18 -5,25 -20,25c-11,0 -20,-4 -20,-9z"></path><path d="M3724,2758c8,-42 47,-98 67,-98c15,0 14,6 -7,48c-13,26 -25,55 -28,65c-3,9 -13,17 -22,17c-13,0 -15,-6 -10,-32z"></path><path d="M2877,2969c-46,-11 -192,-77 -186,-84c3,-2 34,7 69,22c78,31 176,41 221,23c17,-8 44,-31 60,-53c16,-22 29,-35 29,-29c0,27 -34,92 -55,106c-31,20 -91,27 -138,15z"></path><path d="M2385,1781c-3,-5 -1,-12 5,-16c16,-10 12,-75 -5,-81c-22,-9 -18,-24 5,-24c24,0 40,28 40,72c0,44 -29,75 -45,49z"></path><path d="M2650,1647c0,-3 16,-15 35,-27c19,-12 33,-26 30,-30c-3,-5 0,-12 6,-16c8,-4 9,-3 5,5c-6,9 0,10 21,5c26,-6 25,-5 -7,13c-19,10 -47,27 -62,37c-16,10 -28,16 -28,13z"></path><path d="M2793,1573c9,-2 25,-2 35,0c9,3 1,5 -18,5c-19,0 -27,-2 -17,-5z"></path><path d="M2863,1563c9,-2 23,-2 30,0c6,3 -1,5 -18,5c-16,0 -22,-2 -12,-5z"></path><path d="M1960,1337c0,-7 6,-21 13,-32c13,-17 15,-17 35,3c26,26 31,52 6,31c-12,-10 -20,-10 -35,-1c-15,10 -19,9 -19,-1z"></path><path d="M2310,1274c0,-36 16,-54 46,-54c24,0 54,33 54,59c0,11 -3,11 -18,-2c-25,-23 -48,-21 -66,5c-16,22 -16,22 -16,-8z"></path><path d="M1130,1249c-24,-31 -38,-58 -35,-68c3,-9 13,-38 24,-66l18,-50l314,-162c173,-89 317,-162 320,-162c4,-1 10,14 13,33c4,19 20,48 35,65c34,37 31,38 -18,10l-37,-21l-142,65c-199,91 -286,143 -358,212c-66,64 -88,112 -77,166c8,44 -11,36 -57,-22z"></path></g></g></g></svg>