<?xml version="1.0" standalone="no"?>
<!DOCTYPE svg PUBLIC "-//W3C//DTD SVG 20010904//EN"
 "http://www.w3.org/TR/2001/REC-SVG-20010904/DTD/svg10.dtd">
<svg version="1.0" xmlns="http://www.w3.org/2000/svg"
 width="538.000000pt" height="521.000000pt" viewBox="0 0 538.000000 521.000000"
 preserveAspectRatio="xMidYMid meet">

<g transform="translate(0.000000,521.000000) scale(0.100000,-0.100000)"
fill="#000000" stroke="none">
<path d="M0 2605 l0 -2605 628 1 c429 1 588 4 502 10 -370 24 -659 59 -760 93
-101 33 -83 62 57 91 108 23 329 48 357 41 14 -3 29 -6 32 -5 10 2 64 -54 64
-66 0 -14 83 -52 131 -60 20 -3 47 -14 59 -25 20 -18 35 -19 159 -16 132 4
171 10 171 26 0 13 58 32 78 26 26 -9 83 26 117 70 18 24 34 34 53 34 33 0
102 65 102 96 0 26 19 44 47 44 26 0 73 71 73 111 0 22 29 76 30 56 0 -4 8 -3
18 2 9 5 25 31 35 58 l18 49 142 -33 c78 -18 188 -40 245 -50 96 -15 106 -15
155 0 72 23 200 108 235 156 16 22 89 143 162 270 117 205 150 253 150 222 0
-4 -9 -20 -20 -34 -24 -30 -38 -121 -21 -131 14 -9 15 -53 1 -61 -16 -10 -13
-125 4 -131 10 -4 13 -26 12 -85 -1 -74 1 -81 23 -98 20 -15 24 -27 23 -60 -2
-47 30 -121 53 -121 17 0 35 -30 35 -59 0 -29 41 -90 65 -97 30 -9 55 -35 55
-55 0 -23 69 -79 98 -79 13 0 35 -13 50 -29 36 -39 83 -61 125 -59 22 1 45 -7
62 -20 33 -26 109 -39 130 -22 11 9 22 9 52 -1 48 -17 124 -12 140 8 9 12 22
14 50 10 50 -8 112 9 140 39 15 16 32 24 50 22 34 -2 113 37 113 57 0 19 39
45 57 38 7 -3 23 3 34 13 19 17 27 17 211 0 370 -34 540 -72 513 -115 -25 -41
-364 -90 -825 -120 -86 -6 63 -9 483 -10 l607 -1 0 2605 0 2605 -2690 0 -2690
0 0 -2605z m2192 2493 c113 -52 202 -170 213 -283 l5 -50 -14 46 c-18 61 -63
142 -94 171 l-26 23 22 -32 c24 -34 52 -106 52 -132 0 -9 -11 7 -24 34 -78
168 -317 224 -506 119 l-45 -25 40 42 40 41 -35 -17 c-19 -10 -57 -33 -83 -52
-33 -23 -45 -28 -38 -15 17 31 87 90 141 117 71 36 113 44 210 42 67 -3 97 -9
142 -29z m-539 -157 c11 -45 115 -85 267 -103 72 -8 129 -8 233 1 77 7 145 15
153 18 10 4 14 -4 14 -31 0 -20 -4 -36 -10 -36 -5 0 -10 7 -10 16 0 22 -22 12
-38 -17 l-13 -24 4 28 c4 28 4 28 -36 21 -76 -12 -319 -6 -397 10 -84 18 -195
68 -204 92 -6 16 9 44 24 44 4 0 10 -9 13 -19z m1407 -36 c462 -70 884 -255
1235 -540 122 -99 323 -308 416 -430 258 -344 418 -730 486 -1172 21 -138 24
-527 4 -658 -44 -301 -123 -556 -249 -808 -76 -152 -85 -167 -98 -150 -17 23
-17 43 2 68 18 24 10 101 -14 128 -13 15 -14 23 -4 50 14 39 0 101 -29 133
-12 12 -19 35 -19 58 0 43 -22 89 -61 128 -15 16 -26 35 -23 43 7 16 -51 105
-68 105 -16 0 -58 41 -58 56 0 19 -68 74 -91 74 -12 0 -33 13 -48 29 -36 39
-83 61 -136 65 -27 2 -54 11 -66 22 -18 16 -37 19 -120 19 -54 0 -102 5 -108
10 -5 6 -18 55 -29 109 -17 84 -18 103 -7 120 11 18 11 34 -1 101 -7 44 -17
81 -21 83 -38 13 -36 22 10 63 88 77 131 211 110 340 -6 35 -14 71 -18 80 -9
23 34 33 55 14 78 -70 124 151 49 232 -34 35 -119 83 -150 83 -35 0 -172 69
-246 124 -32 23 -106 85 -163 136 -122 108 -242 190 -337 229 -43 18 -67 33
-66 42 3 15 -53 53 -122 85 -43 20 -105 78 -229 218 -92 102 -106 110 -330
181 -80 26 -146 49 -146 52 0 3 12 19 26 36 18 22 24 38 20 56 -5 28 20 107
41 129 19 20 17 128 -2 136 -8 3 -15 14 -15 24 0 11 -6 38 -14 60 l-15 41 32
6 c111 18 467 12 617 -10z m-1260 -116 c25 -6 101 -15 170 -19 l125 -7 -110
-1 c-107 -2 -217 15 -254 39 -18 11 -17 11 69 -12z m490 -3 c0 -3 -4 -8 -10
-11 -5 -3 -10 -1 -10 4 0 6 5 11 10 11 6 0 10 -2 10 -4z m-596 -66 c43 -11 94
-29 114 -40 37 -20 38 -20 203 -2 141 16 172 23 200 42 l32 24 -19 -33 c-22
-37 -12 -34 -219 -66 l-160 -25 -80 40 c-44 21 -109 44 -145 50 -118 21 -133
28 -64 29 33 1 96 -8 138 -19z m735 -6 c-31 -33 -83 -60 -188 -95 -108 -37
-181 -48 -181 -27 0 11 19 19 63 28 96 19 240 67 278 94 45 32 58 32 28 0z
m-777 -122 l2 -87 3 83 c2 45 7 82 11 82 4 0 7 -39 7 -86 1 -63 4 -87 15 -94
17 -11 13 -15 -22 -24 -30 -7 -31 -5 -43 87 -7 55 3 139 16 131 5 -3 10 -44
11 -92z m-54 26 c-1 -29 1 -113 3 -186 l6 -133 -60 -37 c-33 -20 -82 -57 -109
-81 -61 -56 -73 -94 -64 -221 4 -52 11 -165 16 -250 11 -169 19 -229 52 -363
19 -81 20 -109 16 -312 -4 -173 -2 -231 9 -255 23 -55 19 -60 -44 -60 -32 0
-75 -5 -96 -11 -33 -9 -41 -18 -64 -67 -14 -31 -30 -65 -34 -74 -29 -58 16
-165 116 -274 l65 -72 -21 -47 c-18 -41 -19 -48 -6 -58 9 -7 45 -37 81 -67 66
-56 72 -75 15 -46 -41 20 -107 20 -148 0 -22 -11 -44 -14 -67 -9 -36 6 -124
-19 -124 -36 0 -12 -55 -39 -80 -39 -30 0 -100 -47 -100 -68 0 -19 -34 -45
-62 -47 -10 -1 -19 -4 -21 -6 -1 -2 -17 -21 -35 -42 -18 -21 -30 -42 -27 -47
9 -15 -13 -48 -42 -62 -35 -17 -73 -84 -67 -118 5 -28 -1 -40 -30 -56 -27 -14
-48 -81 -41 -126 6 -31 3 -40 -18 -59 -29 -24 -47 -113 -28 -132 15 -15 14
-57 -2 -57 -31 0 -183 309 -251 507 -49 144 -86 297 -113 468 -23 151 -24 535
0 688 84 548 310 1012 677 1391 188 195 367 334 585 455 60 34 111 61 112 61
1 0 2 -24 1 -52z m832 27 c0 -14 -175 -85 -209 -85 -9 0 13 11 49 24 36 12 85
32 110 43 54 26 50 24 50 18z m-384 -81 c6 -49 4 -58 -17 -80 -40 -42 -155
-94 -210 -94 -26 0 -51 5 -54 10 -4 6 8 10 29 10 46 0 134 33 185 70 39 29 41
32 41 85 0 71 17 71 26 -1z m-88 -18 c2 -41 -1 -62 -10 -67 -15 -10 -25 23
-27 89 -1 36 2 43 17 40 13 -3 18 -15 20 -62z m-126 7 l1 -48 6 50 6 50 7 -40
c4 -22 7 -58 7 -80 -1 -39 -2 -39 -9 -10 l-8 30 -1 -33 c-1 -22 -5 -32 -13
-30 -18 6 -28 158 -10 158 8 0 13 -17 14 -47z m63 -18 c7 -65 2 -90 -16 -80
-12 8 -12 145 0 145 5 0 12 -29 16 -65z m460 15 c-5 -21 -3 -30 6 -30 36 0
-146 -149 -254 -209 -72 -40 -314 -127 -324 -117 -3 2 42 27 100 54 229 108
377 212 377 264 0 21 9 29 48 46 26 11 48 21 50 21 2 1 1 -12 -3 -29z m-311
-101 c-57 -60 -187 -120 -220 -101 -13 7 -9 11 22 16 52 10 130 46 179 85 51
39 56 39 19 0z m-318 -36 c16 -21 37 -46 48 -55 18 -15 18 -18 4 -18 -15 0
-46 31 -75 76 -12 19 -13 19 -28 0 -16 -21 -21 -51 -6 -42 5 3 11 -1 14 -9 4
-8 28 -25 54 -39 26 -14 44 -25 38 -25 -5 0 -21 6 -35 14 -32 18 -50 19 -50 1
0 -7 14 -19 30 -26 17 -7 33 -17 36 -22 7 -11 -67 19 -80 32 -6 6 -5 14 1 22
8 9 7 17 -5 27 -14 13 -15 7 -9 -63 6 -88 2 -92 -19 -15 -22 84 -19 143 9 162
33 24 43 21 73 -20z m550 -187 c-10 -33 -31 -70 -55 -97 l-40 -44 -1 60 c-2
93 -11 105 -38 50 -24 -50 -30 -51 -96 -18 l-29 15 84 45 c46 24 107 62 134
82 l50 38 3 -39 c2 -21 -4 -63 -12 -92z m-552 6 c-6 -9 -44 20 -44 33 0 10 7
8 23 -8 13 -12 22 -23 21 -25z m-20 -28 c3 -8 2 -12 -4 -9 -6 3 -10 10 -10 16
0 14 7 11 14 -7z m211 -220 c74 -1 153 -10 240 -27 72 -14 152 -29 178 -32 65
-9 61 -34 -8 -50 -27 -7 -76 -24 -108 -38 -75 -34 -130 -49 -152 -41 -21 9 47
50 124 74 42 13 49 18 32 23 -37 9 -132 -10 -239 -48 -56 -21 -105 -35 -108
-32 -10 10 7 48 38 83 17 19 28 37 26 39 -3 3 -32 -7 -64 -22 -61 -28 -149
-41 -172 -25 -12 8 -11 15 3 41 26 52 54 74 78 65 12 -5 72 -9 132 -10z m620
-115 c42 -11 44 -13 38 -38 -3 -14 -7 -27 -8 -29 -2 -2 -26 5 -54 15 -48 16
-64 37 -44 56 9 9 17 9 68 -4z m717 -58 c94 -40 213 -123 348 -242 63 -56 150
-124 193 -152 42 -28 77 -54 77 -59 0 -24 -146 7 -158 35 -2 4 -10 7 -18 7 -9
0 -36 16 -61 35 -26 20 -58 38 -72 41 -14 3 -37 10 -51 14 -24 8 -24 8 5 9 17
0 51 -4 78 -8 26 -4 47 -5 47 -1 0 14 -117 60 -189 75 -87 18 -99 24 -140 70
-24 27 -31 45 -31 76 0 32 -4 41 -24 49 -13 5 -26 14 -28 21 -2 6 -19 17 -38
23 -37 12 -53 36 -23 36 10 0 48 -13 85 -29z m-574 -7 c29 -12 44 -34 23 -34
-21 0 -101 40 -101 50 0 12 20 8 78 -16z m330 -31 c13 -6 15 -22 6 -46 -4 -12
-12 -13 -37 -6 -40 11 -46 11 -27 -1 12 -8 12 -10 -5 -10 -41 0 -50 15 -36 59
l12 41 37 -16 c20 -9 43 -18 50 -21z m-1018 -29 c36 -8 92 -18 125 -23 l60 -9
-55 -1 c-30 0 -86 6 -125 14 -42 9 -123 15 -202 15 -125 0 -163 4 -163 19 0
12 295 0 360 -15z m1145 -34 c-6 -45 -4 -52 17 -70 l23 -21 -39 16 c-21 8 -40
15 -42 15 -2 0 -4 8 -4 18 0 13 -2 14 -9 4 -10 -16 -61 -6 -61 13 0 6 5 26 11
44 10 29 14 31 61 31 l50 0 -7 -50z m114 3 c0 -16 -4 -37 -9 -48 -7 -16 -9
-13 -9 16 -1 19 -6 40 -13 47 -9 9 -7 12 10 12 18 0 22 -6 21 -27z m-554 -129
c28 -13 58 -29 67 -36 15 -11 29 -7 93 25 41 20 81 37 89 37 7 0 42 -12 78
-27 50 -21 79 -43 122 -89 l56 -61 -22 -19 c-47 -42 -78 -105 -78 -162 0 -53
1 -55 58 -108 40 -38 65 -54 85 -54 15 0 27 -4 27 -9 0 -5 3 -16 6 -24 5 -13
-2 -13 -53 -1 -77 18 -232 17 -313 -2 -60 -14 -212 -81 -272 -120 -26 -17 -28
-17 -47 0 -10 9 -29 44 -41 77 -21 55 -22 72 -17 192 3 75 17 190 31 266 14
74 26 138 26 143 0 12 47 0 105 -28z m515 -24 c0 -17 68 -86 104 -105 32 -18
49 -45 28 -45 -17 0 -103 63 -121 88 -36 53 -43 72 -26 72 8 0 15 -4 15 -10z
m230 -119 c0 -16 3 -43 6 -60 4 -19 2 -31 -4 -31 -6 0 -12 24 -14 53 -3 51 -4
52 -38 58 l-35 6 43 2 c40 1 42 0 42 -28z m154 -16 l29 -23 -38 -8 c-30 -5
-40 -3 -47 10 -5 9 -17 16 -26 16 -15 1 -15 2 2 15 27 21 46 18 80 -10z m-326
-34 c15 -10 46 -28 70 -40 35 -18 42 -26 42 -51 0 -26 -4 -30 -37 -35 -66 -11
-68 -11 -67 12 0 18 -2 20 -13 11 -21 -17 -43 -64 -43 -90 0 -47 -23 2 -30 64
-6 58 -8 60 -15 30 -10 -44 -25 -51 -25 -12 0 37 13 65 48 103 30 32 36 33 70
8z m322 -63 c0 -12 -15 -10 -75 13 -77 29 -69 41 10 15 36 -11 65 -24 65 -28z
m104 21 c9 -46 7 -79 -4 -79 -5 0 -10 20 -10 45 l0 45 -37 0 c-28 0 -34 3 -23
10 8 5 27 10 41 10 22 0 28 -6 33 -31z m150 -15 c77 -11 51 -23 -41 -19 -104
4 -105 5 -73 15 33 11 58 11 114 4z m-473 -141 l1 -28 7 30 c8 36 17 25 26
-30 6 -37 5 -39 -9 -21 -9 12 -16 14 -16 7 0 -7 -9 -11 -22 -9 -16 2 -24 12
-29 35 -7 36 -4 43 23 43 13 0 18 -8 19 -27z m540 10 c12 -15 12 -16 -4 -10
-10 4 -36 7 -58 7 -21 0 -39 5 -39 10 0 18 86 12 101 -7z m-592 -63 c1 -13 0
-13 -9 0 -8 12 -10 10 -11 -10 l-1 -25 -8 25 c-4 14 -8 34 -9 45 -1 16 1 17 9
5 8 -12 10 -12 11 5 1 17 2 16 9 -5 4 -14 8 -32 9 -40z m646 39 c11 -17 2 -18
-19 -3 -17 12 -17 14 -4 14 9 0 20 -5 23 -11z m-345 -39 c-19 -10 -56 -21 -82
-25 -26 -4 -59 -16 -73 -27 -23 -18 -45 -17 -45 2 0 15 62 53 99 61 20 4 59 7
86 7 l50 1 -35 -19z m140 -13 c-14 -13 -46 -32 -72 -41 -45 -16 -134 -74 -126
-81 2 -2 29 -5 61 -6 81 -3 71 -19 -13 -19 -59 0 -71 -3 -80 -20 -10 -19 -8
-20 65 -20 l75 0 0 -30 0 -29 -82 -3 -83 -3 2 -40 c2 -39 2 -39 -8 -10 -13 40
-4 115 20 163 34 67 122 131 208 151 57 14 59 13 33 -12z m155 13 c4 -6 -5
-10 -21 -10 -39 0 -99 -67 -119 -132 -34 -115 -11 -265 52 -330 24 -25 25 -28
7 -28 -15 0 -16 -2 -4 -10 9 -6 17 -5 21 2 5 7 16 7 35 1 29 -10 29 -10 6 -17
-110 -36 -212 114 -199 289 7 91 38 164 88 210 32 29 47 35 83 35 25 0 48 -4
51 -10z m-540 -28 c-22 -2 -44 -8 -49 -13 -13 -12 -29 -12 -21 1 9 14 67 28
90 21 14 -4 7 -7 -20 -9z m46 -179 c15 -81 30 -160 33 -175 7 -35 -21 -40 -29
-5 -21 86 -63 332 -59 339 14 22 28 -18 55 -159z m-37 -24 c31 -159 35 -191
21 -178 -6 7 -65 315 -65 342 0 45 11 3 44 -164z m584 147 c70 -80 65 -278 -9
-357 -34 -36 -71 -38 -104 -4 -34 33 -31 41 13 48 41 7 82 32 82 50 0 9 -2 9
-8 0 -10 -16 -95 -38 -115 -30 -10 4 -17 13 -17 22 0 19 32 33 38 17 2 -7 9
-9 15 -5 7 4 23 9 37 11 13 2 30 7 36 13 6 5 14 6 17 2 4 -3 7 22 7 57 0 59 1
62 15 44 14 -18 15 -16 9 21 -10 64 -36 108 -74 127 l-35 18 31 0 c24 0 40 -9
62 -34z m-923 -98 c37 -40 58 -117 53 -189 -4 -54 -20 -59 -46 -15 -47 80
-112 88 -249 31 -204 -85 -215 -88 -295 -89 -42 -1 -80 3 -85 7 -17 17 193
175 317 238 93 47 137 59 209 56 59 -3 66 -6 96 -39z m825 21 c0 -5 -4 -9 -10
-9 -5 0 -10 7 -10 16 0 8 5 12 10 9 6 -3 10 -10 10 -16z m30 11 c0 -5 -2 -10
-4 -10 -3 0 -8 5 -11 10 -3 6 -1 10 4 10 6 0 11 -4 11 -10z m47 -59 c4 -27 2
-41 -6 -41 -6 0 -11 15 -12 33 0 17 -2 40 -4 51 -2 12 0 15 6 9 6 -6 13 -29
16 -52z m-654 22 c4 -2 7 -10 7 -16 0 -8 -15 -11 -44 -9 -39 3 -46 1 -62 -23
-15 -22 -16 -41 -10 -140 8 -130 -1 -180 -39 -215 -19 -18 -112 -49 -382 -126
-197 -57 -359 -101 -362 -99 -2 3 3 15 11 27 13 19 71 39 344 117 181 52 337
99 347 104 36 17 48 70 45 200 -1 67 1 133 6 145 14 41 95 61 139 35z m550 -7
c7 -19 0 -25 -24 -19 -10 3 -19 12 -19 19 0 18 36 18 43 0z m37 -6 c0 -11 -4
-20 -10 -20 -5 0 -10 9 -10 20 0 11 5 20 10 20 6 0 10 -9 10 -20z m30 5 c0 -8
-4 -15 -10 -15 -5 0 -10 7 -10 15 0 8 5 15 10 15 6 0 10 -7 10 -15z m10 -45
c0 -11 -4 -20 -10 -20 -5 0 -10 9 -10 20 0 11 5 20 10 20 6 0 10 -9 10 -20z
m-30 -10 c0 -11 -4 -20 -9 -20 -14 0 -23 18 -16 30 10 17 25 11 25 -10z m-40
-10 c8 -14 8 -26 0 -40 -17 -31 -25 -24 -25 20 0 44 8 51 25 20z m96 -37 c-11
-11 -19 6 -11 24 8 17 8 17 12 0 3 -10 2 -21 -1 -24z m-286 18 c0 -5 3 -16 6
-25 5 -12 0 -16 -20 -16 -21 0 -26 5 -26 25 0 18 5 25 20 25 11 0 20 -4 20 -9z
m230 -21 c0 -11 -7 -20 -15 -20 -17 0 -18 2 -9 24 9 23 24 20 24 -4z m30 5 c0
-8 -4 -15 -10 -15 -5 0 -10 7 -10 15 0 8 5 15 10 15 6 0 10 -7 10 -15z m-240
-82 c0 -10 11 -38 25 -62 30 -52 30 -51 5 -51 -19 0 -60 59 -75 108 -5 19 -3
22 19 22 18 0 26 -5 26 -17z m-216 -70 c2 -10 8 -37 11 -60 7 -42 6 -43 -23
-43 -27 0 -30 3 -40 52 -7 39 -7 55 1 60 21 13 46 9 51 -9z m53 -54 c6 -29 10
-56 7 -58 -11 -12 -33 28 -40 73 -10 69 17 57 33 -15z m-126 -64 c-3 -5 -10
15 -17 45 -6 30 -8 60 -5 65 3 6 10 -15 17 -45 6 -30 8 -59 5 -65z m-1921 85
c-14 -4 -39 -8 -57 -9 -44 -1 -49 -16 -18 -56 20 -27 33 -35 57 -35 27 0 29
-2 17 -16 -11 -14 -9 -20 19 -45 30 -27 36 -29 89 -23 41 5 54 4 49 -4 -4 -7
-20 -12 -37 -12 -43 0 -36 -16 19 -44 41 -21 55 -23 88 -16 51 12 64 12 64 0
0 -5 -16 -10 -35 -10 -34 0 -48 -14 -22 -23 6 -2 0 -2 -14 0 -20 3 -32 -3 -48
-24 -15 -19 -19 -21 -12 -6 18 35 14 41 -49 73 l-59 30 -21 -22 c-22 -24 -27
-18 -8 12 11 17 8 24 -22 55 -40 41 -52 43 -74 13 -15 -22 -16 -21 -1 9 14 31
14 35 -7 68 -25 37 -52 45 -62 19 -4 -9 -9 -14 -12 -11 -3 3 2 17 11 31 10 14
15 32 12 38 -3 10 16 13 77 15 55 1 73 -1 56 -7z m1895 -60 c8 -69 -9 -47 -20
25 -4 34 -3 47 4 40 5 -5 13 -35 16 -65z m-356 46 c-9 -8 -461 -147 -466 -143
-11 11 395 141 456 146 8 0 12 -1 10 -3z m756 -16 c18 -8 17 -9 -7 -9 -16 -1
-28 4 -28 9 0 12 8 12 35 0z m-69 -78 c103 -43 140 -64 142 -78 2 -10 8 -23
13 -29 6 -6 7 4 3 25 -4 19 -12 38 -18 43 -16 11 14 28 44 25 21 -3 26 -10 36
-60 l11 -58 -44 0 c-40 0 -94 19 -320 114 -4 2 -15 76 -10 76 2 0 67 -26 143
-58z m-368 16 c-3 -7 -84 -44 -182 -84 l-177 -71 -277 -275 c-154 -154 -288
-279 -302 -283 -16 -4 82 100 270 287 l295 294 180 71 c99 40 184 72 188 72 5
1 7 -5 5 -11z m197 -7 c3 -6 -15 -9 -42 -9 -27 1 -62 -6 -80 -16 -40 -20 -45
-3 -5 18 30 17 118 21 127 7z m-2196 -88 c100 -138 171 -181 332 -203 116 -15
133 -20 123 -30 -9 -9 -192 18 -271 39 -32 9 -48 9 -64 0 -19 -10 -28 -5 -81
48 -65 64 -118 140 -118 168 0 11 20 -11 49 -51 50 -71 87 -111 96 -102 3 3
-9 22 -26 44 -43 53 -109 155 -109 168 0 13 4 8 69 -81z m2175 -193 c26 -137
46 -255 43 -262 -6 -17 -10 -2 -62 272 -52 271 -47 240 -37 240 4 0 30 -112
56 -250z m40 11 c49 -256 53 -285 34 -279 -8 3 -31 99 -60 244 -53 269 -53
274 -34 274 10 0 26 -65 60 -239z m400 164 c4 -32 3 -43 -2 -30 -13 29 -24
114 -13 95 5 -8 12 -37 15 -65z m-292 -61 c51 -20 98 -42 103 -49 6 -7 20 -15
32 -19 21 -7 27 -23 49 -151 3 -16 8 -37 10 -46 3 -13 -7 -19 -43 -28 -27 -7
-55 -22 -64 -33 -10 -13 -33 -23 -62 -28 l-46 -7 -11 51 c-29 142 -66 346 -63
346 1 0 45 -16 95 -36z m292 -3 c3 -5 -16 -8 -43 -8 -30 1 -59 -6 -75 -16 -14
-9 -28 -17 -32 -17 -12 0 20 32 41 40 27 12 103 12 109 1z m-40 -151 c10 -52
19 -103 22 -112 3 -10 1 -18 -4 -18 -9 0 -53 204 -52 240 1 36 18 -19 34 -110z
m37 30 c9 -47 19 -102 23 -122 5 -31 4 -38 -8 -38 -17 0 -17 1 -41 130 -9 47
-19 93 -22 103 -4 14 0 18 13 15 15 -2 22 -21 35 -88z m-493 -115 c40 -212 40
-216 2 -243 -16 -13 -30 -31 -30 -41 0 -19 -36 -58 -46 -49 -3 3 4 21 15 39
18 29 21 51 21 137 0 113 2 109 -82 177 l-38 30 57 68 c31 37 59 64 63 60 4
-4 21 -85 38 -178z m-653 146 c-12 -11 -103 -43 -220 -76 -110 -32 -206 -60
-212 -62 -7 -3 -13 2 -13 11 0 10 19 21 58 32 169 50 388 112 397 113 5 1 1
-7 -10 -18z m-1310 -91 c-8 -16 -15 -33 -15 -39 0 -5 50 -51 110 -102 61 -51
110 -96 110 -100 0 -28 -33 -9 -135 77 -63 53 -115 98 -115 101 0 7 32 67 42
81 18 21 19 13 3 -18z m1479 -35 c88 -53 97 -56 206 -70 62 -8 118 -15 124
-15 6 0 -7 15 -29 33 -75 61 -90 79 -35 41 95 -66 132 -96 123 -104 -4 -4 -75
1 -158 12 -127 16 -159 24 -205 50 -52 29 -54 29 -32 6 25 -28 27 -37 10 -73
-16 -36 -43 -32 -123 21 -39 26 -72 49 -74 51 -5 3 89 103 97 103 2 0 45 -25
96 -55z m-1422 -12 c7 -9 7 -13 0 -13 -19 0 -34 29 -26 52 l8 23 4 -25 c2 -14
9 -31 14 -37z m46 13 c-9 -22 -9 -32 0 -47 14 -23 0 -26 -18 -4 -11 13 -10 22
4 52 9 19 19 33 22 31 3 -3 -1 -18 -8 -32z m67 -3 c-25 -62 -27 -74 -15 -88 7
-9 8 -15 2 -15 -5 0 -15 7 -22 15 -9 11 -8 24 5 60 10 25 22 45 27 45 6 0 7
-8 3 -17z m45 -54 c-17 -41 -19 -58 -11 -71 13 -21 -1 -24 -18 -4 -9 11 -7 26
9 67 25 61 30 72 36 66 3 -2 -5 -29 -16 -58z m615 -166 c5 -96 4 -133 -4 -133
-6 0 -11 5 -11 12 0 6 -5 74 -11 150 -6 77 -7 147 -3 156 11 27 21 -35 29
-185z m532 98 l91 -59 176 -26 c97 -14 185 -26 195 -26 12 0 23 11 29 28 10
27 10 26 11 -10 1 -47 8 -47 -239 -10 l-185 28 -93 62 c-50 35 -92 65 -92 67
0 12 22 1 107 -54z m-12 -31 l90 -57 190 -27 c182 -26 264 -44 205 -45 -14 0
-110 12 -215 27 l-190 28 -97 63 c-54 35 -98 67 -98 73 0 11 -4 13 115 -62z
m-21 -24 l101 -64 195 -27 c107 -15 199 -31 204 -36 15 -14 -12 -11 -220 20
l-191 29 -106 67 c-59 36 -107 68 -107 71 0 13 34 -3 124 -60z m-24 -26 c105
-67 114 -70 200 -82 50 -6 87 -15 82 -20 -4 -4 -46 -3 -93 3 -79 11 -91 16
-196 83 -98 62 -128 86 -108 86 3 0 55 -31 115 -70z m1318 41 c4 -11 -5 -13
-43 -8 -26 4 -77 7 -113 7 -80 0 -76 9 9 18 79 9 141 2 147 -17z m-1287 -102
c45 -30 71 -40 137 -50 45 -7 82 -17 82 -22 0 -5 -15 -7 -32 -4 -18 3 -55 9
-83 13 -39 5 -76 24 -168 83 -65 43 -115 80 -111 83 6 6 61 -26 175 -103z
m1439 61 c62 -31 68 -38 49 -57 -8 -8 -28 -1 -72 25 -34 20 -64 37 -66 38 -6
5 10 24 20 24 5 0 36 -14 69 -30z m-1508 -54 c101 -65 124 -75 186 -85 39 -6
74 -11 78 -11 5 0 4 -4 -1 -9 -6 -6 -40 -4 -85 3 -67 11 -87 20 -192 89 -65
42 -118 79 -118 82 0 13 24 0 132 -69z m858 60 c0 -7 3 -28 6 -45 6 -29 5 -31
-24 -31 -31 0 -42 17 -42 68 0 18 6 22 30 22 19 0 30 -5 30 -14z m28 -61 c0
-16 -2 -15 -8 5 -4 14 -8 34 -8 45 0 16 2 15 8 -5 4 -14 8 -34 8 -45z m752 23
c0 -10 -25 2 -55 26 -17 14 -14 14 18 -1 20 -9 37 -21 37 -25z m-1510 -129
c19 -4 57 -10 84 -14 26 -4 44 -10 40 -15 -5 -4 -43 -2 -84 4 -67 11 -88 20
-197 90 -68 43 -120 82 -117 87 2 4 57 -26 122 -68 64 -42 133 -80 152 -84z
m658 96 l1 -20 -9 20 c-8 18 -9 18 -10 -5 -1 -23 -2 -23 -10 -5 -5 11 -9 31
-9 45 0 23 1 23 9 5 8 -18 9 -18 10 5 l2 25 8 -25 c4 -14 8 -34 8 -45z m-1783
11 l30 -24 -43 -62 c-45 -63 -49 -80 -14 -61 37 20 38 11 2 -20 -53 -45 -104
-77 -141 -87 l-34 -9 55 -27 c37 -19 45 -25 25 -21 -16 3 -42 9 -58 12 -15 3
-34 0 -43 -8 -13 -10 -17 -10 -25 2 -27 42 4 124 50 134 38 8 94 69 128 140
15 30 30 55 33 55 3 0 19 -11 35 -24z m969 -60 c106 -69 120 -75 195 -86 45
-7 81 -17 81 -22 0 -6 -14 -8 -32 -5 -18 3 -55 9 -83 13 -39 5 -76 23 -167 82
-100 64 -135 92 -113 92 2 0 56 -33 119 -74z m1427 12 c471 -224 425 -1055
-78 -1406 -133 -93 -313 -133 -452 -101 -132 30 -268 144 -334 279 -62 126
-80 219 -74 384 6 206 53 360 158 519 51 78 154 197 170 197 22 0 5 -36 -42
-88 -112 -126 -185 -265 -230 -438 -31 -120 -32 -312 -1 -425 87 -325 355
-477 646 -369 224 84 421 320 497 595 30 109 37 319 15 425 -61 288 -282 466
-535 430 -69 -10 -196 -53 -207 -71 -10 -16 -34 -9 -34 10 0 13 17 26 58 44
102 46 158 57 268 54 92 -3 109 -7 175 -39z m378 -31 c28 -30 42 -51 38 -61
-11 -27 -30 -17 -74 40 -75 94 -50 109 36 21z m-3101 23 c45 -32 50 -45 28
-75 -12 -17 -15 -17 -50 11 -28 23 -36 36 -36 62 0 17 4 32 8 32 5 0 28 -14
50 -30z m115 14 c25 -8 21 -31 -6 -36 -16 -3 -35 5 -58 25 l-34 29 40 -6 c22
-4 48 -9 58 -12z m1175 -53 c99 -64 113 -70 190 -81 45 -7 85 -16 88 -21 7
-12 -15 -11 -106 5 -66 11 -88 20 -187 85 -62 40 -113 75 -113 77 0 13 32 -3
128 -65z m917 59 c4 -6 -11 -10 -39 -10 -25 0 -48 -4 -51 -10 -3 -5 -11 -10
-16 -10 -16 0 1 21 25 30 29 12 74 12 81 0z m-2325 -10 c0 -5 -7 -10 -15 -10
-8 0 -15 5 -15 10 0 6 7 10 15 10 8 0 15 -4 15 -10z m3129 -36 c46 -53 48 -59
23 -73 -14 -8 -26 1 -65 45 -27 30 -45 58 -42 64 13 22 45 8 84 -36z m-2167
-8 c-3 -5 -9 -1 -12 10 -4 10 -5 23 -2 28 3 5 9 1 12 -10 4 -10 5 -23 2 -28z
m-32 17 c0 -7 -7 -13 -15 -13 -21 0 -27 -1 -53 -11 -12 -5 -35 -11 -50 -14
-76 -16 -92 -17 -92 -7 0 11 20 20 62 28 13 2 46 10 73 17 64 17 75 17 75 0z
m475 -59 c95 -59 105 -63 204 -77 96 -15 121 -21 110 -31 -2 -2 -54 4 -115 14
-109 16 -113 18 -218 84 -58 38 -106 72 -106 78 0 11 -7 14 125 -68z m580 54
c7 -7 -6 -9 -37 -5 -53 5 -56 -6 -6 -18 l33 -8 -29 -4 c-23 -4 -26 -7 -15 -15
11 -7 11 -11 2 -15 -7 -2 -13 -11 -13 -19 0 -8 -4 -14 -10 -14 -5 0 -10 13
-10 28 0 34 -16 52 -48 52 -34 0 -60 -17 -77 -50 -19 -38 -19 -75 1 -106 9
-13 14 -27 12 -30 -3 -3 -74 5 -157 17 l-151 23 -106 68 c-59 38 -104 72 -101
75 4 3 54 -24 112 -61 l105 -66 128 -19 c70 -10 128 -17 130 -16 2 2 -2 13 -8
25 -27 51 27 150 94 169 36 11 136 3 151 -11z m311 -70 c19 -89 18 -108 -5
-108 -21 0 -24 6 -41 94 -11 54 -10 61 6 73 10 7 20 11 22 8 2 -2 10 -32 18
-67z m-1162 40 c37 -53 7 -173 -49 -193 -38 -13 -65 20 -65 80 0 106 71 175
114 113z m99 -8 c32 0 17 -44 -15 -48 -22 -3 -28 -8 -28 -29 0 -24 -29 -97
-36 -90 -2 1 4 23 12 47 15 43 14 94 -1 132 -7 17 -5 17 21 3 16 -8 37 -15 47
-15z m1097 -27 c6 -32 14 -68 17 -80 3 -13 0 -23 -5 -23 -6 0 -16 26 -22 58
-6 31 -13 67 -16 80 -2 12 0 22 5 22 5 0 15 -26 21 -57z m-1632 17 c-14 -22
-24 -19 -15 5 4 8 11 15 17 15 6 0 6 -7 -2 -20z m698 -79 c78 -49 81 -50 232
-72 83 -13 152 -27 152 -32 0 -5 -15 -7 -32 -3 -18 3 -89 13 -157 22 l-123 17
-96 62 c-53 34 -98 68 -101 76 -3 10 2 9 21 -3 14 -10 61 -39 104 -67z m478
52 c31 -61 44 -101 36 -113 -6 -9 -18 7 -40 50 -41 81 -62 69 -25 -15 14 -32
24 -64 21 -72 -17 -44 -486 -841 -508 -863 -32 -32 -133 -93 -180 -109 -27 -9
-54 -8 -124 4 -171 30 -494 108 -494 120 0 17 38 55 55 55 8 0 117 -30 242
-66 126 -36 248 -67 273 -67 35 -1 58 7 106 36 34 21 70 48 82 60 11 12 125
200 253 417 247 420 240 403 224 506 -9 52 7 84 40 84 17 0 29 -9 39 -27z
m-976 -34 c2 -23 -2 -40 -12 -48 -17 -15 -36 -7 -36 15 0 8 5 12 10 9 6 -3 10
3 10 15 0 12 -4 18 -10 15 -11 -7 -14 18 -3 29 17 17 38 -1 41 -35z m70 24 c2
-8 -6 -13 -22 -13 -17 0 -26 5 -26 16 0 19 41 16 48 -3z m-334 -180 c-52 -163
-109 -298 -148 -348 -28 -37 -16 -4 33 88 32 60 67 152 101 262 54 177 59 189
67 182 2 -3 -21 -85 -53 -184z m2101 167 c4 -6 -7 -10 -27 -10 -25 0 -29 3
-18 10 19 13 37 13 45 0z m138 -29 l38 -16 -57 -77 c-32 -43 -59 -76 -61 -75
-9 10 -29 138 -22 143 5 3 9 16 9 30 0 22 3 24 28 18 15 -4 44 -14 65 -23z
m-2897 -11 c57 -32 94 -72 94 -101 0 -28 -9 -24 -47 20 -114 134 -274 97 -401
-93 -102 -153 -154 -343 -156 -571 -1 -212 42 -368 130 -465 111 -123 255 -99
378 64 47 62 97 161 122 239 10 31 21 57 26 57 21 0 19 -36 -6 -102 -82 -223
-226 -368 -365 -368 -178 0 -303 203 -318 515 -14 289 76 580 226 734 101 104
216 130 317 71z m989 20 c-3 -5 -13 -10 -21 -10 -8 0 -14 5 -14 10 0 6 9 10
21 10 11 0 17 -4 14 -10z m1685 0 c-19 -13 -30 -13 -30 0 0 6 10 10 23 10 18
0 19 -2 7 -10z m693 -57 c31 -60 34 -70 22 -87 -13 -17 -17 -17 -36 -5 -24 16
-62 106 -48 115 5 3 9 14 9 25 0 35 17 20 53 -48z m-717 -3 c8 0 14 -4 14 -9
0 -5 3 -16 6 -25 4 -11 0 -16 -14 -16 -26 0 -29 4 -36 65 -5 46 -5 48 6 18 6
-18 17 -33 24 -33z m124 50 c11 -7 4 -9 -25 -8 -22 0 -51 -4 -64 -11 -12 -7
-25 -10 -28 -8 -8 9 50 36 77 36 14 1 32 -4 40 -9z m489 -37 c34 -68 35 -80 6
-86 -24 -4 -29 1 -51 51 -30 68 -30 72 1 72 18 0 29 -9 44 -37z m-3096 -10
c-4 -21 -7 -108 -7 -193 0 -210 14 -267 86 -332 61 -56 103 -73 143 -58 38 15
40 8 9 -30 -54 -64 -115 -60 -179 12 -84 92 -112 222 -101 462 5 109 10 144
23 158 25 28 35 21 26 -19z m1268 -44 c17 -12 68 -25 135 -35 114 -17 137 -23
88 -25 -29 -1 -29 -1 -4 -9 14 -4 19 -8 12 -9 -7 -1 -10 -6 -6 -12 4 -8 -3 -9
-22 -5 -16 3 -65 10 -109 17 -77 10 -151 42 -140 59 3 5 0 12 -6 16 -8 5 -9 3
-4 -6 5 -8 3 -11 -6 -8 -8 3 -14 10 -14 16 0 5 -4 14 -9 19 -5 5 -6 3 -2 -4 8
-15 -3 -17 -23 -4 -18 12 -4 34 18 27 14 -5 13 -4 -1 8 -10 7 -18 16 -18 20 0
6 57 -27 111 -65z m1089 11 c0 -40 -4 -51 -21 -61 -25 -13 -34 -5 -42 38 -5
28 -2 34 26 52 18 11 33 21 35 21 1 0 2 -22 2 -50z m-1984 3 c-11 -11 -19 6
-11 24 8 17 8 17 12 0 3 -10 2 -21 -1 -24z m764 10 c0 -18 90 -83 140 -101 14
-5 69 -15 122 -22 78 -10 101 -10 113 0 12 10 15 10 15 -4 0 -28 -28 -30 -150
-13 -110 15 -122 19 -193 64 -70 44 -89 67 -70 86 12 12 23 7 23 -10z m1435
-14 c4 -17 5 -33 2 -36 -10 -10 -47 18 -47 36 0 42 36 42 45 0z m40 -21 c4
-23 3 -38 -3 -38 -9 0 -22 45 -22 78 0 28 18 -1 25 -40z m288 -62 c24 -58 52
-174 45 -181 -1 -1 -44 -14 -95 -28 l-92 -25 -19 64 -20 64 56 105 55 106 23
-22 c12 -12 34 -49 47 -83z m-2189 69 c42 -28 78 -115 84 -203 3 -42 9 -80 14
-83 14 -9 -29 -130 -67 -187 -71 -105 -164 -140 -242 -92 -40 24 -44 45 -5 24
35 -18 95 -18 131 0 39 21 89 81 112 134 25 58 40 122 28 122 -5 0 -9 22 -9
48 0 55 -22 127 -50 160 -29 34 -81 53 -120 42 -27 -8 -31 -7 -26 6 3 9 6 19
6 24 0 14 53 30 87 25 17 -2 43 -11 57 -20z m1538 7 c4 -4 25 -92 46 -195 29
-138 36 -187 27 -187 -15 0 -14 -3 -55 190 -17 79 -33 146 -35 149 -14 14 -10
-20 21 -168 19 -90 32 -166 29 -169 -14 -14 -29 27 -56 154 -39 189 -38 184
-52 184 -7 0 -21 -6 -31 -13 -17 -13 -17 -19 9 -148 15 -74 29 -145 32 -158 4
-15 2 -22 -4 -18 -14 8 -77 333 -69 353 13 34 111 53 138 26z m-1462 -6 c0 -9
-30 -14 -35 -6 -4 6 3 10 14 10 12 0 21 -2 21 -4z m154 -79 c11 -19 35 -45 54
-58 54 -37 85 -84 77 -116 l-6 -27 -18 40 c-14 30 -44 59 -131 124 -98 73
-110 85 -95 96 26 19 95 -15 119 -59z m-594 54 c0 -6 -4 -13 -10 -16 -5 -3
-10 1 -10 9 0 9 5 16 10 16 6 0 10 -4 10 -9z m89 -38 c11 -32 10 -45 -2 -73
l-14 -35 -17 58 c-12 43 -14 62 -6 77 14 27 24 20 39 -27z m629 -7 c-4 -23 14
-55 33 -61 11 -4 33 -27 49 -51 28 -45 28 -45 14 -107 -32 -138 -93 -303 -145
-387 -26 -42 -36 -50 -60 -50 -33 0 -35 6 -14 37 70 100 174 400 161 465 -6
32 -82 155 -109 177 -32 26 -17 31 28 9 25 -12 44 -27 43 -32z m81 7 c12 -22
-3 -53 -26 -53 -14 0 -14 2 3 14 16 13 17 18 6 35 -7 12 -8 21 -3 21 6 0 14
-8 20 -17z m591 5 c0 -19 -18 -43 -25 -36 -4 3 -2 16 5 27 12 24 20 27 20 9z
m-1835 -28 c14 -26 22 -151 10 -138 -3 3 -10 34 -16 69 -5 35 -12 72 -15 82
-8 27 4 20 21 -13z m2674 16 c39 -21 99 -90 121 -141 25 -58 40 -146 38 -214
l-2 -56 -3 48 c-3 33 -8 47 -19 47 -7 0 -14 5 -14 10 0 6 5 10 10 10 13 0 13
35 -1 83 -6 22 -16 37 -25 37 -11 0 -13 6 -9 21 9 27 -39 101 -63 97 -11 -2
-17 4 -17 15 0 11 -15 27 -35 38 -19 10 -29 18 -22 19 7 0 25 -6 41 -14z
m-1899 -26 c104 -111 18 -393 -117 -389 l-28 1 29 8 c44 14 94 68 116 127 11
30 20 57 20 61 0 5 -16 6 -35 4 -35 -4 -35 -4 -35 36 0 23 -5 52 -11 65 -14
30 -52 52 -74 43 -13 -5 -15 -1 -10 17 18 62 98 77 145 27z m430 14 c0 -8 -4
-12 -10 -9 -5 3 -10 10 -10 16 0 5 5 9 10 9 6 0 10 -7 10 -16z m1370 6 c0 -5
-4 -10 -10 -10 -5 0 -10 5 -10 10 0 6 5 10 10 10 6 0 10 -4 10 -10z m-2662
-117 l-3 -72 -39 33 -39 32 33 63 c31 58 35 61 42 40 5 -13 7 -56 6 -96z
m1107 32 l30 -24 -33 -1 c-19 0 -46 -9 -62 -20 l-27 -19 -6 57 c-3 31 -9 66
-13 76 -6 16 1 13 37 -12 24 -18 58 -43 74 -57z m449 20 c64 -9 121 -13 127
-9 7 4 7 -2 -1 -16 -8 -15 -18 -20 -33 -17 -12 3 -65 11 -117 17 -100 13 -180
47 -180 76 0 12 10 9 44 -11 32 -19 72 -29 160 -40z m1792 -5 c13 -64 11 -70
-20 -70 -20 0 -25 7 -35 57 -15 75 -15 75 17 71 24 -3 28 -9 38 -58z m118 -25
c14 -65 14 -71 -1 -82 -23 -17 -26 -17 -50 10 -28 29 -42 117 -19 117 8 0 20
9 27 21 15 29 24 15 43 -66z m-2899 10 c13 -54 13 -56 -13 -88 -14 -17 -27
-34 -29 -36 -1 -2 -16 2 -33 9 -28 11 -30 16 -25 44 11 53 16 66 26 66 5 0 19
16 31 35 11 20 23 34 25 31 3 -3 11 -30 18 -61z m1972 29 c-9 -9 -28 6 -21 18
4 6 10 6 17 -1 6 -6 8 -13 4 -17z m-1078 -60 c14 -32 14 -34 -3 -34 -16 0 -31
17 -40 47 -6 18 -3 20 12 16 11 -2 25 -16 31 -29z m-685 -24 c6 -25 4 -45 -7
-72 -32 -76 -87 -66 -87 16 0 87 75 131 94 56z m1776 20 c0 -5 -5 -10 -11 -10
-5 0 -7 5 -4 10 3 6 8 10 11 10 2 0 4 -4 4 -10z m172 -31 c14 -11 37 -40 50
-67 33 -68 33 -229 0 -317 -28 -75 -86 -152 -132 -177 -98 -51 -200 16 -217
143 -8 55 18 50 29 -6 28 -133 132 -164 222 -64 57 63 87 141 93 244 6 97 -7
153 -48 200 -27 30 -37 35 -74 35 -32 0 -52 -7 -73 -25 -35 -30 -42 -31 -42
-7 1 19 39 50 78 62 35 11 80 2 114 -21z m-893 -22 c-7 -15 -16 -27 -20 -27
-4 0 -11 -13 -17 -28 -5 -15 -82 -154 -171 -307 -108 -188 -174 -292 -201
-316 -22 -20 -77 -55 -124 -79 -80 -40 -87 -42 -142 -35 -121 14 -541 109
-558 126 -24 23 15 19 156 -14 192 -46 326 -73 401 -82 53 -7 64 -5 120 24
107 55 148 92 198 177 26 43 115 197 199 342 94 162 156 260 162 254 5 -5 4
-19 -3 -35z m-685 14 c28 -30 31 -82 8 -134 -32 -72 -94 -79 -125 -15 -15 31
-16 43 -7 79 21 76 85 113 124 70z m304 -35 c5 -23 -16 -46 -42 -45 -21 0 -21
0 2 9 26 11 28 36 5 64 -18 20 -18 20 7 4 14 -8 26 -23 28 -32z m103 7 c11
-12 5 -14 -37 -11 -34 2 -50 8 -52 18 -2 12 6 15 37 12 22 -2 46 -11 52 -19z
m-154 -13 c1 -11 -2 -20 -7 -20 -10 0 -20 26 -13 34 12 11 19 6 20 -14z m1951
4 c20 -6 22 -13 22 -65 0 -59 0 -59 -30 -59 l-30 0 0 65 c0 36 3 65 8 65 4 0
17 -3 30 -6z m-528 -14 c0 -5 -5 -10 -11 -10 -5 0 -7 5 -4 10 3 6 8 10 11 10
2 0 4 -4 4 -10z m-2825 -16 c50 -8 95 -21 101 -27 6 -7 17 -39 24 -72 25 -120
95 -211 181 -236 35 -11 48 -10 90 4 l48 17 100 -65 c56 -35 101 -66 101 -68
0 -3 -16 -21 -35 -41 -26 -28 -36 -49 -41 -87 -4 -28 -12 -53 -18 -55 -13 -5
-674 340 -697 364 -9 9 -26 46 -38 81 l-21 64 24 41 c26 45 71 96 83 96 4 0
49 -7 98 -16z m2690 -28 c110 -110 -18 -442 -140 -362 -31 21 -32 35 -2 29 52
-10 115 79 124 177 7 74 -10 126 -49 150 -20 12 -25 20 -16 23 29 12 60 6 83
-17z m805 -51 c0 -66 -2 -76 -22 -86 -19 -10 -25 -8 -45 15 -18 21 -23 39 -23
83 0 54 1 55 18 39 18 -15 20 -15 37 4 10 11 22 20 27 20 4 0 8 -34 8 -75z
m-2995 53 c28 -12 30 -20 15 -49 -18 -32 -38 -23 -42 21 -2 22 -2 40 -1 40 1
0 14 -5 28 -12z m981 -11 c7 -19 -76 -248 -93 -254 -8 -3 -16 -4 -18 -1 -2 2
16 62 40 133 25 72 45 131 45 133 0 9 22 0 26 -11z m789 -65 c14 -7 8 -10 -26
-15 -24 -3 -46 -4 -48 -1 -2 2 1 22 8 45 l13 42 18 -31 c10 -17 26 -34 35 -40z
m870 1 c-15 -118 -27 -183 -36 -188 -7 -5 -120 46 -145 66 -6 5 -8 25 -5 50 6
41 7 42 91 80 47 21 89 39 93 39 5 0 5 -21 2 -47z m-521 5 c34 -48 11 -169
-38 -203 -37 -26 -50 -17 -22 15 43 52 56 125 31 174 -18 35 -18 36 -1 36 8 0
22 -10 30 -22z m231 2 c3 -5 1 -10 -4 -10 -6 0 -11 5 -11 10 0 6 2 10 4 10 3
0 8 -4 11 -10z m-1780 -70 c25 -8 44 -9 65 -2 39 14 31 -6 -18 -45 -33 -27
-47 -30 -129 -36 -51 -4 -93 -5 -93 -2 0 3 15 24 33 48 18 24 39 58 47 76 l13
33 24 -30 c13 -17 39 -36 58 -42z m1365 41 c25 -47 -2 -141 -40 -141 -10 0
-22 5 -25 10 -3 6 0 10 8 10 16 0 37 41 37 70 0 11 -9 29 -19 39 -11 11 -17
22 -13 25 12 13 42 5 52 -13z m110 -10 c15 -30 13 -32 -27 -29 -31 2 -39 7
-41 26 -3 19 1 22 27 22 20 0 34 -7 41 -19z m-2020 -10 c0 -10 3 -39 6 -65 6
-44 6 -46 -18 -46 -24 0 -26 4 -31 58 -5 65 -3 72 24 72 12 0 19 -7 19 -19z
m40 -52 c0 -38 -4 -58 -10 -54 -5 3 -10 33 -10 66 0 38 4 58 10 54 6 -3 10
-33 10 -66z m1766 46 c10 -26 -5 -67 -23 -63 -9 2 -18 9 -21 16 -2 7 2 11 8
10 7 -2 15 3 18 11 3 10 0 12 -12 8 -14 -6 -15 -3 -6 13 13 24 28 26 36 5z
m54 -6 c0 -11 -27 -12 -34 0 -3 4 -3 11 0 14 8 8 34 -3 34 -14z m-1755 -135
c-7 -18 -27 -40 -44 -48 -37 -19 -42 -20 -66 -3 -16 13 -15 14 12 10 46 -7 57
15 54 110 l-2 82 30 -59 c28 -55 29 -62 16 -92z m2727 136 c11 0 1 -100 -12
-113 -4 -5 -17 -6 -29 -2 -18 5 -20 12 -15 53 8 66 12 75 30 68 9 -3 20 -6 26
-6z m-972 -30 c0 -5 -7 -7 -15 -4 -8 4 -15 8 -15 10 0 2 7 4 15 4 8 0 15 -4
15 -10z m168 -15 c11 -11 -6 -15 -36 -9 -18 4 -32 11 -32 17 0 9 58 3 68 -8z
m292 -15 c0 -5 -2 -10 -4 -10 -3 0 -8 5 -11 10 -3 6 -1 10 4 10 6 0 11 -4 11
-10z m70 -5 c0 -9 -6 -12 -15 -9 -8 4 -15 10 -15 15 0 5 7 9 15 9 8 0 15 -7
15 -15z m541 -10 c34 18 35 15 18 -67 -10 -48 -29 -78 -51 -78 -17 0 -48 80
-42 107 15 67 14 67 30 44 14 -20 17 -20 45 -6z m-1216 -5 l33 0 1 -89 1 -89
-42 -36 c-42 -34 -43 -35 -51 -13 -11 30 -22 201 -13 222 4 10 12 15 22 11 9
-3 31 -6 49 -6z m-1150 -70 c-9 -17 -24 -34 -33 -37 -9 -3 -27 -17 -39 -31
l-21 -25 -15 29 c-8 16 -17 41 -21 56 -6 26 -5 27 51 33 32 3 65 7 73 9 22 4
23 1 5 -34z m-595 -13 c0 -5 -4 -5 -10 -2 -5 3 -10 14 -10 23 0 15 2 15 10 2
5 -8 10 -19 10 -23z m63 11 c-2 -5 -13 -8 -23 -8 -10 0 -21 3 -23 8 -3 4 8 7
23 7 15 0 26 -3 23 -7z m252 -4 c-39 -17 -105 -18 -105 -1 0 8 21 12 68 13 63
1 65 0 37 -12z m519 -3 c14 -15 15 -24 6 -40 -6 -12 -18 -21 -28 -21 -16 1
-16 1 1 11 21 13 22 27 0 51 -9 10 -12 18 -6 18 5 0 18 -9 27 -19z m109 3 c20
-4 37 -11 37 -16 0 -14 -113 -5 -118 10 -4 13 21 15 81 6z m-143 -26 c0 -16
-3 -19 -11 -11 -6 6 -8 16 -5 22 11 17 16 13 16 -11z m1040 6 c0 -8 -4 -12
-10 -9 -5 3 -10 10 -10 16 0 5 5 9 10 9 6 0 10 -7 10 -16z m983 3 c16 -11 16
-15 1 -62 -21 -61 -18 -58 -44 -50 -19 6 -21 12 -15 42 9 48 23 83 33 83 4 0
16 -6 25 -13z m-3469 -28 c-10 -16 -24 -9 -24 12 0 18 2 19 15 9 8 -7 12 -16
9 -21z m1086 7 c0 -13 -95 -26 -193 -26 -28 0 -48 -7 -64 -22 -20 -19 -26 -20
-50 -9 l-27 12 44 21 c29 13 80 23 140 28 148 11 150 11 150 -4z m1940 -7 c0
-5 -7 -9 -15 -9 -15 0 -20 12 -9 23 8 8 24 -1 24 -14z m121 -19 c38 -12 69
-26 69 -31 0 -35 -130 -244 -142 -229 -2 3 -16 36 -31 75 l-27 69 28 68 c15
37 29 68 31 68 2 0 35 -9 72 -20z m-1621 -16 c0 -26 -66 -156 -86 -169 -14 -9
-27 -15 -28 -13 -8 9 87 188 100 188 8 0 14 -3 14 -6z m2040 -37 l30 5 -28
-68 c-35 -84 -54 -92 -77 -30 -15 38 -15 50 -5 83 18 56 22 58 37 30 11 -22
18 -25 43 -20z m-2134 -21 l-15 -36 -78 0 c-43 0 -94 -3 -113 -6 -26 -4 -42
-1 -58 13 -23 18 -22 18 100 21 114 3 125 5 147 27 32 31 36 26 17 -19z m1134
34 c0 -5 -2 -10 -4 -10 -3 0 -8 5 -11 10 -3 6 -1 10 4 10 6 0 11 -4 11 -10z
m350 -10 c0 -5 -2 -10 -4 -10 -3 0 -8 5 -11 10 -3 6 -1 10 4 10 6 0 11 -4 11
-10z m-400 -46 c0 -8 -4 -12 -10 -9 -5 3 -10 10 -10 16 0 5 5 9 10 9 6 0 10
-7 10 -16z m440 -9 c0 -8 -4 -15 -10 -15 -5 0 -10 7 -10 15 0 8 5 15 10 15 6
0 10 -7 10 -15z m-2910 0 c0 -10 -51 -107 -54 -103 -2 1 -6 20 -9 41 -5 33 -3
39 21 52 29 15 42 18 42 10z m3363 -9 c17 -14 17 -16 -8 -65 -27 -55 -35 -60
-55 -36 -11 13 -9 24 10 65 26 55 27 56 53 36z m-778 -16 c3 -5 1 -10 -4 -10
-6 0 -11 5 -11 10 0 6 2 10 4 10 3 0 8 -4 11 -10z m-2461 -127 l6 -68 -46 -57
c-25 -32 -49 -58 -53 -58 -5 0 -20 26 -34 57 l-26 57 67 97 c76 110 72 111 86
-28z m2341 39 c16 -25 48 -57 71 -71 32 -19 42 -31 39 -46 -2 -11 -7 -37 -10
-58 -5 -34 -9 -37 -28 -31 -58 18 -138 92 -190 176 -25 40 -21 50 26 80 37 25
43 26 52 12 6 -9 23 -37 40 -62z m225 48 c0 -5 -4 -10 -10 -10 -5 0 -10 5 -10
10 0 6 5 10 10 10 6 0 10 -4 10 -10z m722 -41 c9 -25 15 -30 34 -26 13 2 24 2
24 -1 0 -16 -74 -122 -85 -122 -13 0 -35 56 -35 88 0 15 38 92 46 92 3 0 10
-14 16 -31z m-2929 -16 c-5 -49 -21 -70 -58 -77 -21 -4 -39 -5 -42 -2 -3 2 4
25 15 49 14 32 27 47 44 50 34 6 43 2 41 -20z m2067 17 c0 -5 -4 -10 -10 -10
-5 0 -10 5 -10 10 0 6 5 10 10 10 6 0 10 -4 10 -10z m260 0 c0 -5 -4 -10 -10
-10 -5 0 -10 5 -10 10 0 6 5 10 10 10 6 0 10 -4 10 -10z m118 -64 c17 -30 32
-59 32 -65 0 -6 -27 -31 -60 -55 -65 -48 -124 -66 -216 -66 -54 0 -54 0 -48
28 22 87 28 94 84 109 60 15 104 40 139 77 14 14 27 26 30 26 3 0 21 -25 39
-54z m-2353 22 c25 -12 45 -28 45 -35 0 -8 -19 -23 -42 -33 -39 -17 -44 -18
-60 -3 -10 9 -18 22 -18 29 0 17 18 64 24 64 3 0 26 -10 51 -22z m2105 -8 c0
-5 -4 -10 -10 -10 -5 0 -10 5 -10 10 0 6 5 10 10 10 6 0 10 -4 10 -10z m601
-6 c17 -16 17 -18 -12 -60 -16 -24 -32 -44 -34 -44 -13 0 -35 14 -35 23 0 11
52 97 59 97 3 0 12 -7 22 -16z m39 -112 c0 -13 8 -26 20 -30 18 -7 16 -12 -26
-60 -25 -28 -49 -52 -54 -52 -4 0 -10 23 -12 52 -5 45 -2 56 25 95 32 44 47
43 47 -5z m-2770 -5 c17 6 30 10 30 8 0 -3 -51 -97 -56 -104 -2 -2 -22 -7 -44
-11 -35 -6 -42 -5 -51 12 -8 16 -5 31 18 73 l28 54 23 -22 c20 -18 27 -20 52
-10z m90 29 c0 -3 -4 -8 -10 -11 -5 -3 -10 -1 -10 4 0 6 5 11 10 11 6 0 10 -2
10 -4z m1423 -41 c14 -25 22 -45 16 -45 -8 0 -49 71 -49 85 0 14 10 1 33 -40z
m-1633 29 c0 -4 -10 -24 -22 -45 -14 -25 -27 -38 -36 -34 -7 3 -25 5 -38 5
-24 0 -24 0 -8 33 9 17 22 35 28 39 13 9 76 10 76 2z m2754 -40 c9 -24 -50
-94 -79 -94 -1 0 -6 7 -9 16 -7 18 48 94 69 94 7 0 16 -7 19 -16z m27 -144
c20 0 7 -17 -40 -53 -26 -20 -51 -37 -55 -37 -3 0 -6 19 -6 42 0 36 6 48 43
86 l42 43 3 -40 c2 -23 7 -41 13 -41z m-1043 21 c45 -40 51 -49 36 -55 -20 -8
-59 25 -87 74 -26 43 -10 37 51 -19z m-1832 28 c3 -6 -7 -24 -23 -41 -27 -26
-32 -28 -56 -17 l-26 12 20 28 c21 30 71 40 85 18z m2734 -38 c-1 -14 -93 -72
-100 -65 -19 20 -13 34 30 67 40 32 46 34 58 19 6 -9 12 -18 12 -21z m-2619
-4 l33 6 -33 -41 c-18 -23 -38 -45 -44 -49 -17 -10 -91 -3 -99 10 -4 6 12 33
35 60 41 49 41 49 58 28 14 -17 24 -20 50 -14z m-230 -57 c20 0 7 -18 -30 -38
-32 -18 -40 -20 -50 -8 -9 11 -6 18 16 35 15 11 34 18 41 16 8 -3 18 -5 23 -5z
m2699 -24 c0 -19 -10 -28 -52 -45 -56 -23 -55 -23 -60 2 -2 12 11 24 47 41 63
31 65 31 65 2z m138 -17 c-2 -39 -5 -42 -60 -70 -62 -31 -64 -30 -47 20 10 27
79 89 102 91 4 0 7 -18 5 -41z m-717 -1 c32 -13 59 -26 59 -29 0 -4 -11 -10
-25 -13 -17 -4 -43 3 -85 24 -33 17 -60 32 -60 35 0 12 58 3 111 -17z m-2078
-12 c3 -8 21 -16 39 -18 l33 -3 -52 -28 c-29 -15 -63 -27 -76 -27 -26 0 -68
29 -52 36 6 2 28 15 50 28 49 29 51 30 58 12z m-183 -26 c-8 -5 -22 -10 -30
-10 -13 0 -13 1 0 10 8 5 22 10 30 10 13 0 13 -1 0 -10z m2680 -5 c0 -20 -25
-31 -88 -40 -53 -7 -53 -7 -40 14 7 12 24 24 38 27 14 3 30 7 35 9 26 9 55 4
55 -10z m-218 -5 l51 0 -19 -21 c-17 -19 -26 -21 -77 -15 -32 3 -63 9 -69 12
-14 9 33 35 50 29 8 -3 36 -5 64 -5z m349 -43 c-10 -26 -58 -47 -108 -47 -25
0 -28 7 -14 29 11 17 125 62 129 51 1 -4 -2 -19 -7 -33z m-2990 5 c-7 -2 -18
1 -23 6 -8 8 -4 9 13 5 13 -4 18 -8 10 -11z m212 -24 c-7 -13 -108 -9 -121 4
-21 21 -13 27 41 30 50 3 90 -15 80 -34z m2396 -14 c10 -9 -35 -3 -49 6 -11 8
-7 9 15 4 17 -4 32 -8 34 -10z m197 0 c-3 -9 -6 -18 -6 -20 0 -2 -31 -4 -70
-4 -106 0 -91 25 20 33 25 2 49 4 54 5 4 1 5 -5 2 -14z"/>
<path d="M3700 2900 c0 -5 9 -10 20 -10 11 0 20 5 20 10 0 6 -9 10 -20 10 -11
0 -20 -4 -20 -10z"/>
<path d="M3700 2861 c0 -21 13 -41 26 -41 8 0 14 10 14 25 0 18 -5 25 -20 25
-11 0 -20 -4 -20 -9z"/>
<path d="M3724 2758 c8 -42 47 -98 67 -98 15 0 14 6 -7 48 -13 26 -25 55 -28
65 -3 9 -13 17 -22 17 -13 0 -15 -6 -10 -32z"/>
<path d="M2877 2969 c-46 -11 -192 -77 -186 -84 3 -2 34 7 69 22 78 31 176 41
221 23 17 -8 44 -31 60 -53 16 -22 29 -35 29 -29 0 27 -34 92 -55 106 -31 20
-91 27 -138 15z"/>
<path d="M2385 1781 c-3 -5 -1 -12 5 -16 16 -10 12 -75 -5 -81 -22 -9 -18 -24
5 -24 24 0 40 28 40 72 0 44 -29 75 -45 49z"/>
<path d="M2650 1647 c0 -3 16 -15 35 -27 19 -12 33 -26 30 -30 -3 -5 0 -12 6
-16 8 -4 9 -3 5 5 -6 9 0 10 21 5 26 -6 25 -5 -7 13 -19 10 -47 27 -62 37 -16
10 -28 16 -28 13z"/>
<path d="M2793 1573 c9 -2 25 -2 35 0 9 3 1 5 -18 5 -19 0 -27 -2 -17 -5z"/>
<path d="M2863 1563 c9 -2 23 -2 30 0 6 3 -1 5 -18 5 -16 0 -22 -2 -12 -5z"/>
<path d="M1960 1337 c0 -7 6 -21 13 -32 13 -17 15 -17 35 3 26 26 31 52 6 31
-12 -10 -20 -10 -35 -1 -15 10 -19 9 -19 -1z"/>
<path d="M2310 1274 c0 -36 16 -54 46 -54 24 0 54 33 54 59 0 11 -3 11 -18 -2
-25 -23 -48 -21 -66 5 -16 22 -16 22 -16 -8z"/>
<path d="M1130 1249 c-24 -31 -38 -58 -35 -68 3 -9 13 -38 24 -66 l18 -50 314
-162 c173 -89 317 -162 320 -162 4 -1 10 14 13 33 4 19 20 48 35 65 34 37 31
38 -18 10 l-37 -21 -142 65 c-199 91 -286 143 -358 212 -66 64 -88 112 -77
166 8 44 -11 36 -57 -22z"/>
</g>
</svg>
